<svg width="346" height="223" viewBox="0 0 346 223" fill="none" xmlns="http://www.w3.org/2000/svg">
<mask id="mask0" mask-type="alpha" maskUnits="userSpaceOnUse" x="0" y="0" width="346" height="223">
<rect width="346" height="223" fill="#C4C4C4"/>
</mask>
<g mask="url(#mask0)">
<path fill-rule="evenodd" clip-rule="evenodd" d="M151.83 205.648C151.83 214.886 151.404 223.412 150.836 231.086L327.624 231.228C325.208 216.591 324.639 197.406 326.771 172.11C326.771 172.11 339.561 91.5317 297.496 43.2134C274.616 16.9225 231.414 1.71646 170.163 10.8117C120.967 18.1819 97.9297 60.789 87.8102 89.8495C83.961 89.9229 80.1943 90.2318 76.5102 91.532C74.8049 92.1005 73.3838 92.6689 71.8205 93.6637C70.1152 94.6585 69.4046 95.227 68.1256 96.3639C67.9305 96.5589 67.7355 96.7372 67.5462 96.9103C67.1838 97.2416 66.8424 97.5537 66.5624 97.9271L66.136 98.3534L65.7097 98.9219C65.5676 99.1351 65.4254 99.3838 65.2833 99.6325C65.1412 99.8812 64.9991 100.13 64.857 100.343C64.7859 100.414 64.7504 100.521 64.7149 100.627C64.6794 100.734 64.6438 100.84 64.5728 100.911L64.5728 101.054C64.0043 103.043 64.0043 104.322 65.2833 106.028C66.7045 107.875 68.5519 109.296 70.5415 110.433C73.668 112.28 77.3629 113.417 81.0579 113.702C81.1319 113.709 81.2059 113.716 81.2799 113.722C80.8214 116.074 80.632 117.396 80.632 117.396L157.231 156.335C157.231 156.335 151.83 169.552 151.83 205.648Z" fill="white"/>
<path d="M246.2 95.5118C246.2 102.76 240.8 114.981 218.346 111.855C207.829 110.292 198.876 106.739 199.871 94.5171C200.44 87.4114 213.798 77.6056 224.457 77.6056C235.115 77.6056 246.2 81.4427 246.2 95.5118Z" fill="black"/>
<path d="M238.81 76.6109C250.464 83.7165 253.306 101.623 243.5 111.428C240.374 114.555 235.4 109.723 238.668 106.597C240.089 105.033 241.226 103.186 241.795 101.196C241.937 100.628 242.079 100.059 242.221 99.3489C242.221 99.0647 242.363 98.7805 242.363 98.4962C242.221 99.2068 242.363 98.212 242.363 98.0699C242.505 96.7909 242.505 95.3698 242.363 94.0908C242.363 93.9486 242.221 93.2381 242.363 93.8065C242.363 93.5223 242.221 93.096 242.221 92.8117C242.079 92.2433 241.937 91.5327 241.795 90.9643C241.368 89.5432 241.226 89.1168 240.374 87.8378C239.095 85.7061 237.531 84.0008 235.4 82.7217C231.563 80.1637 234.973 74.195 238.81 76.6109Z" fill="black"/>
<path d="M107.745 105.564C107.745 112.812 96.5185 121.481 86.0022 121.481C75.3437 121.481 63.4062 110.965 63.4062 103.717C63.4062 96.4691 72.2172 84.5316 82.8757 84.5316C93.5341 84.5316 107.745 91.3531 107.745 105.564Z" fill="black"/>
<path d="M95.2396 84.5318C103.766 84.2476 110.161 91.9217 111.298 99.7379C112.435 107.554 109.025 114.233 103.909 119.918C102.63 121.339 100.071 121.197 98.7925 119.918C97.3713 118.497 97.5134 116.223 98.7925 114.802C102.061 111.249 104.619 106.986 104.193 101.727C103.909 99.0273 102.914 96.4693 101.35 94.7639C100.356 93.627 99.7872 93.0586 98.3661 92.4901C97.3713 92.0638 96.2344 91.7796 95.0975 91.9217C93.1079 92.0638 91.4026 90.2163 91.4026 88.2268C91.6868 86.0951 93.2501 84.5318 95.2396 84.5318Z" fill="black"/>
<path d="M164.479 100.769C163.058 104.322 160.357 107.022 157.231 109.011C152.399 112.28 146.572 114.27 141.03 115.406C134.351 116.828 127.529 117.68 120.708 118.391C113.034 119.244 105.36 119.954 97.5436 120.38C92.2854 120.665 86.8851 121.233 81.6269 120.949C77.3636 120.807 73.2423 119.67 69.4053 117.965C64.8576 115.975 60.0258 112.564 57.8941 107.875C56.6151 105.032 56.6151 102.048 57.6099 99.2057C57.752 98.9214 57.752 98.6372 57.8941 98.4951C60.1679 93.0948 64.9998 88.8314 70.2579 86.4155C79.9216 81.8679 90.4379 83.0048 100.67 82.4364C112.75 81.7258 124.687 80.4468 136.767 80.731C141.883 80.8731 147.283 81.2994 152.257 82.4364C156.662 83.4311 160.926 85.5628 163.2 89.542C165.331 92.8106 165.9 97.2161 164.479 100.769ZM153.394 90.2526C150.125 88.9735 146.146 88.6893 142.593 88.263C131.509 87.2682 120.424 88.263 109.339 88.9735C103.37 89.3999 97.4015 89.8262 91.4327 89.8262C86.3167 89.8262 81.3427 89.8262 76.5109 91.5316C74.8055 92.1 73.3844 92.6685 71.8212 93.6633C70.1158 94.658 69.4053 95.2265 68.1262 96.3634C67.5578 96.9318 66.9893 97.3582 66.563 97.9266C66.4209 98.0687 66.2788 98.2109 66.1367 98.353L65.7103 98.9214C65.4261 99.3478 65.1419 99.9162 64.8576 100.343C64.7155 100.485 64.7155 100.769 64.5734 100.911L64.5734 101.053C64.005 103.043 64.005 104.322 65.284 106.027C66.7051 107.875 68.5526 109.296 70.5422 110.433C73.6686 112.28 77.3636 113.417 81.0585 113.701C85.464 114.127 89.8695 113.701 94.275 113.417C107.634 112.706 121.561 111.427 134.351 109.438C139.04 108.585 143.73 107.59 148.136 105.743C148.278 105.601 148.704 105.459 148.704 105.459C148.988 105.316 149.273 105.174 149.557 105.032C150.125 104.748 150.836 104.464 151.404 104.037C152.683 103.327 154.247 102.332 154.957 101.764C155.526 101.337 155.952 100.769 156.52 100.343C156.52 100.343 156.805 99.9162 156.947 99.7741C157.089 99.4899 157.231 99.3478 157.373 99.0635C157.941 98.0687 158.226 97.3582 158.084 96.3634C158.084 93.8054 156.378 91.3895 153.394 90.2526Z" fill="black"/>
<path d="M300.622 97.2168C299.059 103.043 292.664 106.17 287.547 108.302C279.021 111.854 269.641 113.133 260.546 114.128C250.456 115.265 240.366 115.549 230.276 114.981C225.16 114.697 220.186 114.27 215.212 113.56C211.375 112.991 207.68 112.281 203.985 110.718C200.29 109.012 197.022 106.312 195.601 102.333C193.895 97.5011 195.601 91.9587 198.443 87.9795C203.701 80.7318 212.796 78.458 221.181 77.1789C239.513 74.3367 258.13 72.7734 276.605 75.3315C283.853 76.3263 292.664 77.6053 297.637 83.7161C300.764 87.411 301.759 92.5271 300.622 97.2168ZM293.232 96.3641C293.374 96.0799 293.374 95.9378 293.232 96.3641V96.3641ZM293.8 92.2429C293.8 92.385 293.658 91.5323 293.658 91.2481C293.516 90.8217 293.374 90.3954 293.232 90.1112C293.232 90.1112 293.232 90.1112 293.232 89.9691C293.09 89.6848 292.948 89.4006 292.806 89.1164C292.664 88.9743 292.521 88.8322 292.521 88.5479C292.521 88.4058 292.379 88.4058 292.379 88.4058C292.379 88.4058 292.379 88.4058 292.237 88.2637C291.953 87.9795 291.669 87.5532 291.242 87.2689C290.39 86.4163 289.395 85.8478 288.116 85.1372C284.989 83.7161 281.152 83.1477 277.742 82.5792C259.693 79.5949 241.077 81.1581 223.17 84.0003C217.202 84.9951 210.238 85.9899 205.691 90.3954C203.701 92.385 201.711 95.7957 202.138 98.7801C202.422 101.338 204.412 102.759 206.827 103.896C209.528 105.175 212.512 105.744 215.496 106.17C219.902 106.738 224.165 107.165 228.571 107.449C237.666 108.017 246.761 107.875 255.856 107.165C263.957 106.454 272.341 105.459 280.3 103.043C283.853 102.049 287.405 100.628 290.532 98.4958C291.1 98.0695 291.811 97.6432 292.379 97.2168C292.664 96.9326 293.09 96.3641 293.516 96.222C293.658 95.6536 293.8 95.0851 293.943 94.5167C293.943 94.3746 293.943 94.2325 293.943 94.2325C293.943 93.8061 293.943 93.3798 293.943 93.0956C293.8 92.8113 293.8 92.5271 293.8 92.2429Z" fill="black"/>
<path d="M173.005 110.575C152.683 108.727 14.4072 132.745 11.8492 140.987C2.61185 171.399 58.32 168.273 58.32 168.273C58.32 168.273 64.1467 185.468 72.8155 187.6C98.3958 193.995 189.916 198.543 201.996 177.51C222.744 140.987 173.005 110.575 173.005 110.575Z" fill="#FF7A27"/>
<path d="M201.428 184.474C197.448 188.737 191.764 191.153 186.222 192.432C180.111 193.853 173.716 194.422 167.463 194.848C160.926 195.416 154.246 195.558 147.709 195.701C134.493 195.843 121.134 195.701 107.917 195.274C95.1273 194.848 81.9109 193.995 69.5471 190.3C63.8625 188.595 58.178 185.611 55.7621 179.926C54.6252 177.226 54.4831 174.384 55.0516 171.684C49.5092 171.684 43.9668 171.684 38.4244 171.257C29.8976 170.547 21.0866 168.699 14.1231 163.583C10.4282 160.883 7.01747 157.188 5.59634 152.64C4.31733 148.661 5.17 144.256 7.4438 140.845C10.8545 135.587 16.6811 131.75 22.3656 129.476C29.187 126.776 36.4348 125.213 43.5404 123.792C54.341 121.376 65.4258 119.386 76.3685 117.539C99.6749 113.559 122.981 110.149 146.43 107.733C153.536 107.022 160.783 106.17 167.889 106.312C181.958 106.596 194.464 116.402 200.717 128.623C202.565 132.176 203.986 136.013 205.265 139.85C205.833 141.698 204.554 143.829 202.707 144.256C200.717 144.824 198.87 143.545 198.301 141.698C196.027 134.876 193.043 128.623 188.211 123.365C185.511 120.523 182.527 118.107 178.974 116.402C177.553 115.691 176.132 115.123 174.71 114.696C173.858 114.412 173.005 114.128 172.152 113.986C171.868 113.986 171.584 113.844 171.3 113.844C171.158 113.844 170.305 113.702 170.163 113.702C164.052 112.991 157.657 113.844 151.688 114.412C129.519 116.402 108.486 119.528 86.6006 123.081C75.5158 124.928 64.2889 126.776 53.2041 129.05C44.9616 130.755 36.5769 132.46 28.6186 134.876C27.3396 135.303 26.0606 135.729 24.7816 136.155C24.4973 136.298 24.3552 136.298 24.071 136.44C23.2183 136.866 22.5078 137.15 21.6551 137.719C15.9706 140.845 8.86493 146.672 13.8389 153.493C18.2444 159.746 26.4869 162.304 33.7347 163.583C42.6878 165.004 51.9251 164.578 60.8782 164.436C81.2003 164.152 101.665 162.873 121.987 161.878C132.077 161.451 142.309 161.025 152.541 160.883C160.783 160.741 170.305 159.746 177.695 164.152C179.969 165.573 181.958 167.42 183.806 169.41C186.932 172.82 181.816 178.079 178.69 174.526C177.837 173.673 177.126 172.678 176.132 171.968C175.989 171.826 175.705 171.541 175.563 171.399C175.421 171.257 174.995 170.973 174.995 170.973C174.426 170.547 173.716 170.12 173.147 169.836C170.305 168.415 166.042 168.131 162.489 167.989C151.972 167.989 141.314 168.131 130.798 168.557C109.765 169.41 88.7323 170.831 67.6996 171.257C66.2785 171.257 64.7152 171.399 63.2941 171.399C62.4414 172.11 62.1572 172.963 62.0151 174.099C61.873 175.663 62.2993 177.084 63.152 178.363C65.5679 181.631 70.1155 182.91 73.8104 183.905C84.8952 186.748 96.4064 187.6 107.917 188.027C119.713 188.453 131.366 188.595 143.161 188.453C154.957 188.311 166.752 188.027 178.547 186.321C183.948 185.611 189.774 184.474 194.322 181.063C198.159 178.221 200.575 173.815 200.006 168.983C199.722 166.994 201.854 165.288 203.701 165.288C205.833 165.288 207.112 166.994 207.396 168.983C207.823 174.81 205.265 180.352 201.428 184.474Z" fill="black"/>
<path d="M86.7427 84.2844C87.3112 78.8841 89.8692 73.4838 92.2851 68.652C96.5485 59.9831 101.949 52.0248 108.202 44.6349C126.676 22.8916 152.967 9.10673 181.106 4.98545C215.639 -0.272716 253.299 4.41698 282.432 25.0233C295.364 34.2606 306.307 46.056 313.555 60.2673C321.513 75.7576 325.634 92.8111 327.908 109.865C332.598 145.109 328.761 180.495 331.319 215.739C331.745 220.855 332.171 225.971 332.882 231.229C333.166 233.218 331.035 234.924 329.187 234.924C327.055 234.924 325.776 233.218 325.492 231.229C323.218 213.038 322.508 194.564 322.934 176.231C323.218 159.32 323.36 142.408 322.081 125.497C320.802 108.728 318.244 91.9584 312.418 76.0418C307.16 61.4042 298.775 48.4719 287.122 38.0977C262.536 16.0702 228.998 8.68038 196.738 10.5278C180.537 11.5226 164.336 14.7912 149.699 21.7548C137.903 27.2972 127.813 34.4028 118.86 43.6401C116.871 45.6297 115.023 47.6193 113.176 49.751C112.323 50.7458 111.612 51.5984 110.902 52.5932C110.76 52.8774 110.476 53.1617 110.333 53.3038C109.623 54.1565 110.76 52.7353 110.049 53.588C109.623 54.1565 109.197 54.7249 108.77 55.4355C106.07 59.1304 103.512 63.1096 101.238 67.0887C100.243 68.7941 99.3908 70.4994 98.5381 72.3469C98.1118 73.0574 97.8275 73.768 97.5433 74.6207C97.4012 75.047 97.2591 75.3313 96.9749 75.7576C96.8327 75.8997 96.8328 76.1839 96.6906 76.326C96.4064 76.8945 96.9749 75.4734 96.6906 76.326C95.838 78.5999 94.8432 80.8737 94.2747 83.1475C94.1326 83.5738 94.1326 83.858 93.9905 84.2844C93.9905 84.4265 93.9905 84.5686 93.8484 84.7107C93.7063 85.4213 93.9905 83.5738 93.8484 84.2844C93.5642 86.2739 92.2851 87.9793 90.1535 87.9793C88.5902 87.8372 86.4585 86.2739 86.7427 84.2844Z" fill="black"/>
<path d="M154.104 192.006C155.525 204.938 155.809 218.154 155.099 231.087C154.815 235.776 147.567 235.776 147.851 231.087C148.704 218.012 148.277 204.938 146.856 192.006C146.714 190.016 148.704 188.311 150.551 188.311C152.541 188.453 153.82 190.016 154.104 192.006Z" fill="black"/>
</g>
</svg>
