<svg width="641" height="196" viewBox="0 0 641 196" fill="none" xmlns="http://www.w3.org/2000/svg">
<path d="M346.522 23.5999C346.122 22.0999 345.022 20.7999 343.322 19.8999C341.622 18.8999 339.622 18.3999 337.422 18.3999L281.822 18.8999C279.722 18.8999 277.922 19.3999 276.322 20.2999C274.722 21.1999 273.622 22.3999 273.022 23.9999L239.122 121L220.622 91.3999C223.422 90.0999 226.022 88.2999 228.522 86.0999C230.922 83.8999 233.022 81.2999 234.822 78.3999C236.622 75.4999 237.922 72.4999 238.922 69.1999C239.922 65.8999 240.322 62.5999 240.322 59.0999C240.322 53.8999 239.022 48.6999 236.322 43.3999C233.622 38.0999 229.322 33.3999 223.222 29.1999C217.122 24.9999 209.122 21.5999 199.122 18.9999C189.122 16.3999 176.822 15.0999 162.222 15.0999C157.922 15.0999 153.422 15.1999 148.722 15.4999C144.022 15.7999 139.022 16.1999 133.822 16.6999C131.622 16.8999 129.722 17.6999 128.322 18.8999C126.822 20.0999 126.122 21.5999 126.122 23.1999L124.622 96.4999C124.422 95.8999 124.122 95.3999 123.822 94.7999C121.922 90.8999 119.322 87.3999 116.222 84.2999C113.022 81.1999 109.322 78.6999 105.122 76.6999C100.922 74.6999 96.5222 73.6999 91.9222 73.3999C101.522 68.6999 108.122 64.1999 111.622 59.7999C115.122 55.3999 116.922 51.0999 116.922 46.9999C116.922 44.4999 116.522 42.0999 115.622 39.7999C113.522 34.3999 110.222 29.9999 105.622 26.6999C101.022 23.3999 95.7222 20.7999 89.5222 18.9999C83.4222 17.1999 76.7222 15.8999 69.5222 15.2999C62.3222 14.6999 55.1222 14.3999 47.9222 14.3999C42.3222 14.3999 36.7222 14.4999 31.3222 14.5999C25.8222 14.7999 20.7222 14.9999 15.8222 15.1999C13.3222 15.2999 11.2222 15.9999 9.52222 17.2999C7.82222 18.5999 7.02222 20.1999 7.02222 21.9999V133C7.02222 134.8 7.82222 136.4 9.42222 137.6C11.0222 138.8 13.1222 139.6 15.6222 139.8C20.5222 140 25.2222 140.2 29.7222 140.3C34.2222 140.4 38.5222 140.5 42.7222 140.5C60.7222 140.5 75.6222 139.4 87.4222 137.3C99.2222 135.2 108.122 132 114.322 127.6C118.622 124.7 121.722 121.4 123.722 117.7C123.922 117.4 124.022 117.1 124.222 116.8L123.922 134C123.922 135.8 124.822 137.4 126.622 138.7C128.422 140.1 130.522 140.8 133.022 140.8H167.122C169.622 140.8 171.822 140.1 173.622 138.8C175.422 137.4 176.422 135.8 176.422 134V111.7C176.422 111 176.822 110.7 177.522 110.7C178.422 110.5 179.022 110.7 179.322 111.4L195.022 138.1C195.922 139.5 197.322 140.6 199.122 141.3C200.922 142 202.922 142.2 205.022 142L237.122 138.1C237.322 138.1 237.522 138 237.722 138C239.322 139.2 241.322 139.9 244.022 140L284.122 140.3C286.522 140.3 288.522 139.8 290.222 138.7C291.922 137.6 292.922 136.3 293.222 134.6L294.822 127.9C294.822 127.2 295.322 126.9 296.422 126.9L321.922 127.1C322.622 127.1 323.222 127.4 323.522 128.1L325.122 134.3C325.522 135.9 326.622 137.3 328.322 138.3C330.022 139.3 332.022 139.8 334.222 139.8H373.222C376.022 139.8 378.422 138.9 380.322 137.2C382.222 135.5 382.822 133.6 382.122 131.5L346.522 23.5999ZM54.1222 43.4999C54.1222 43.1999 54.3222 42.7999 54.8222 42.4999C55.1222 42.2999 55.5222 42.1999 56.1222 42.2999C57.0222 42.4999 58.2222 42.7999 59.6222 43.1999C61.1222 43.5999 62.5222 44.0999 63.8222 44.7999C65.1222 45.4999 66.3222 46.3999 67.3222 47.5999C68.3222 48.6999 68.9222 50.0999 69.1222 51.7999C69.2222 53.3999 68.8222 54.7999 67.9222 55.9999C66.9222 57.1999 65.8222 58.1999 64.4222 58.9999C63.0222 59.7999 61.5222 60.3999 60.0222 60.8999C58.4222 61.2999 57.2222 61.6999 56.1222 61.8999C55.8222 61.9999 55.4222 61.9999 54.8222 61.6999C54.4222 61.5999 54.1222 61.2999 54.1222 60.8999V43.4999ZM71.2222 106.4C69.9222 107.8 68.3222 109 66.5222 110C64.7222 111 62.8222 111.7 60.8222 112.2C58.8222 112.7 57.2222 113 56.0222 113.3C55.4222 113.4 55.0222 113.4 54.7222 113.1C54.3222 113 54.0222 112.7 54.0222 112.1V91.1999C54.0222 90.8999 54.2222 90.4999 54.7222 90.1999C55.0222 89.9999 55.4222 89.8999 55.8222 89.9999C57.0222 90.1999 58.5222 90.4999 60.3222 90.9999C62.1222 91.3999 64.0222 92.0999 65.7222 92.9999C67.5222 93.8999 69.1222 94.9999 70.5222 96.2999C71.9222 97.6999 72.7222 99.2999 72.8222 101.3C73.1222 103.3 72.5222 104.9 71.2222 106.4ZM191.922 64.4999C190.622 65.8999 189.122 67.0999 187.222 68.0999C185.322 69.0999 183.422 69.7999 181.422 70.2999C179.422 70.7999 177.822 71.0999 176.622 71.3999C176.322 71.4999 175.922 71.4999 175.322 71.1999C174.922 70.8999 174.622 70.4999 174.622 70.1999V49.1999C174.622 48.8999 174.822 48.5999 175.322 48.3999C175.922 48.1999 176.322 48.0999 176.622 48.1999C177.822 48.3999 179.322 48.6999 181.122 49.0999C182.922 49.4999 184.822 50.0999 186.522 50.9999C188.322 51.8999 189.822 52.9999 191.222 54.2999C192.522 55.6999 193.322 57.2999 193.422 59.2999C193.722 61.3999 193.222 63.0999 191.922 64.4999ZM314.022 93.1999C313.722 93.3999 313.322 93.4999 312.722 93.4999L303.622 93.6999C303.222 93.6999 302.822 93.5999 302.522 93.3999C302.222 93.1999 302.122 92.8999 302.122 92.3999L306.122 72.4999C306.222 72.0999 306.822 71.6999 307.722 71.4999C308.422 71.4999 309.022 71.7999 309.322 72.4999L314.422 92.1999C314.222 92.5999 314.122 92.9999 314.022 93.1999Z" fill="black"/>
<path d="M203.722 146.8C201.622 146.8 199.622 146.4 197.722 145.7C195.022 144.7 192.922 143 191.522 140.8C191.522 140.8 191.522 140.7 191.422 140.7L180.922 122.9V134.4C180.922 136.7 180.122 140 176.322 142.7C173.722 144.6 170.622 145.6 167.222 145.6H133.122C129.622 145.6 126.622 144.6 124.022 142.6C120.422 139.9 119.622 136.7 119.622 134.4L119.722 129.6C118.822 130.3 117.922 131 116.922 131.7C110.122 136.4 100.822 139.8 88.3223 142.1C76.4223 144.3 61.1223 145.3 42.9223 145.3C38.7223 145.3 34.3223 145.2 29.8223 145.1C25.3223 145 20.6223 144.8 15.6223 144.6C15.5223 144.6 15.5223 144.6 15.4223 144.6C12.1223 144.3 9.22227 143.3 6.92227 141.5C4.22227 139.4 2.82227 136.6 2.82227 133.4V22.3999C2.82227 20.1999 3.52227 16.8999 7.12227 14.1999C9.52227 12.3999 12.5223 11.2999 15.9223 11.1999C20.9223 10.9999 26.1223 10.7999 31.5223 10.5999C37.0223 10.3999 42.6223 10.3999 48.3223 10.3999C55.6223 10.3999 63.0223 10.6999 70.3223 11.2999C77.7223 11.8999 84.8223 13.1999 91.1223 15.0999C97.7223 17.0999 103.522 19.8999 108.522 23.4999C113.822 27.2999 117.622 32.3999 120.022 38.5999C120.822 40.6999 121.322 42.8999 121.522 45.1999L121.922 23.2999C121.922 21.2999 122.622 18.3999 125.722 15.6999C127.922 13.8999 130.522 12.7999 133.622 12.4999C138.822 11.9999 143.922 11.4999 148.622 11.2999C153.422 10.9999 158.122 10.8999 162.422 10.8999C177.322 10.8999 190.122 12.2999 200.422 14.8999C210.822 17.5999 219.422 21.2999 225.822 25.6999C232.422 30.2999 237.322 35.5999 240.322 41.4999C243.322 47.3999 244.822 53.2999 244.822 59.1999C244.822 63.0999 244.322 66.8999 243.222 70.4999C242.122 74.0999 240.622 77.5999 238.622 80.7999C236.622 83.9999 234.222 86.8999 231.522 89.3999C230.022 90.7999 228.522 91.9999 226.822 92.9999L238.022 110.9L268.822 22.5999C268.822 22.5999 268.822 22.4999 268.922 22.4999C269.922 19.9999 271.622 17.9999 274.122 16.5999C276.422 15.2999 279.022 14.5999 281.822 14.5999L337.422 14.0999C340.422 14.0999 343.122 14.7999 345.522 16.0999C348.822 17.9999 350.222 20.4999 350.722 22.2999L386.122 130.5C386.922 132.7 387.522 136.9 383.122 140.9C380.422 143.4 377.022 144.6 373.122 144.6H334.122C331.122 144.6 328.322 143.9 326.022 142.4C323.422 140.8 321.622 138.5 320.822 135.8L319.822 131.9L298.622 131.8L297.622 136C297.222 138 296.022 140.7 292.722 142.9C290.322 144.4 287.522 145.2 284.222 145.2L244.022 144.9C243.922 144.9 243.822 144.9 243.722 144.9C241.022 144.7 238.722 144.1 236.822 143L205.522 146.8C205.022 146.7 204.322 146.8 203.722 146.8ZM198.922 136.1C199.322 136.7 199.922 137.1 200.822 137.5C202.022 138 203.322 138.1 204.722 138L236.822 134.1C236.922 134.1 237.022 134.1 237.122 134.1H237.322C238.522 133.9 239.722 134.2 240.622 134.9C241.522 135.5 242.722 135.9 244.422 136.1L284.422 136.4C285.922 136.4 287.122 136.1 288.122 135.5C289.022 134.9 289.122 134.5 289.122 134.3C289.122 134.2 289.122 134.2 289.122 134.1L290.622 127.7C290.922 125.3 292.822 123 296.522 123L322.022 123.2C324.422 123.2 326.522 124.5 327.522 126.7C327.622 126.9 327.722 127.2 327.822 127.5L329.422 133.7C329.422 133.8 329.622 134.4 330.622 135C331.622 135.6 332.822 135.9 334.222 135.9H373.222C374.922 135.9 376.222 135.4 377.422 134.4C377.922 134 378.022 133.7 378.022 133.6C378.022 133.6 378.022 133.5 377.922 133.4V133.3L342.422 24.9999V24.8999C342.322 24.4999 341.922 24.0999 341.222 23.6999C340.222 23.0999 339.022 22.7999 337.522 22.7999L281.922 23.2999C280.622 23.2999 279.422 23.5999 278.522 24.0999C277.622 24.5999 277.322 25.0999 277.122 25.4999L243.322 122.4C242.722 124 241.322 125.1 239.722 125.3C238.022 125.5 236.422 124.7 235.522 123.3L217.022 93.6999C216.322 92.5999 216.222 91.2999 216.522 90.0999C216.922 88.8999 217.722 87.8999 218.922 87.3999C221.322 86.2999 223.622 84.7999 225.722 82.7999C227.822 80.8999 229.722 78.5999 231.222 76.0999C232.822 73.5999 234.022 70.7999 234.822 67.9999C235.622 65.1999 236.122 62.1999 236.122 59.0999C236.122 54.5999 234.922 49.9999 232.622 45.3999C230.322 40.7999 226.422 36.5999 220.922 32.8999C215.322 28.9999 207.722 25.7999 198.222 23.3999C188.622 20.8999 176.622 19.5999 162.422 19.5999C158.322 19.5999 153.822 19.6999 149.122 19.9999C144.522 20.2999 139.522 20.6999 134.522 21.1999C133.122 21.2999 132.122 21.6999 131.322 22.3999C130.622 22.9999 130.622 23.1999 130.622 23.3999L129.122 96.7999C129.122 98.8999 127.622 100.6 125.522 101C123.522 101.4 121.422 100.3 120.622 98.3999C120.422 97.8999 120.222 97.3999 120.022 96.9999C118.322 93.5999 116.022 90.3999 113.222 87.6999C110.422 84.9999 107.122 82.6999 103.322 80.9999C99.6223 79.2999 95.7223 78.2999 91.7223 78.0999C89.7223 77.9999 88.0223 76.5999 87.6223 74.5999C87.2223 72.5999 88.2223 70.6999 90.0223 69.7999C99.0223 65.3999 105.122 61.2999 108.222 57.3999C111.122 53.7999 112.522 50.3999 112.522 47.3999C112.522 45.4999 112.222 43.5999 111.522 41.7999C109.722 37.0999 106.922 33.4999 103.022 30.6999C98.8223 27.6999 93.9223 25.2999 88.2223 23.5999C82.4223 21.8999 76.0223 20.6999 69.1223 20.0999C62.1223 19.4999 54.9223 19.1999 47.8223 19.1999C42.3223 19.1999 36.7223 19.2999 31.3223 19.3999C26.0223 19.5999 20.8223 19.6999 15.8223 19.9999C14.2223 20.0999 12.9223 20.4999 12.0223 21.1999C11.2223 21.7999 11.2223 22.1999 11.2223 22.4999V133.5C11.2223 133.8 11.2223 134.1 11.9223 134.7C12.8223 135.4 14.1223 135.9 15.7223 136C20.5223 136.2 25.2223 136.4 29.6223 136.5C34.0223 136.6 38.3223 136.7 42.5223 136.7C60.2223 136.7 75.0223 135.7 86.4223 133.6C97.5223 131.6 105.922 128.6 111.622 124.6C115.322 122.1 118.022 119.2 119.722 116.2C119.822 116 119.922 115.8 120.022 115.6L120.122 115.5C121.022 113.7 123.122 112.7 125.122 113.2C127.122 113.7 128.522 115.5 128.422 117.5L128.122 134.7C128.122 134.8 128.122 135.2 129.022 135.8L129.122 135.9C130.122 136.7 131.322 137.1 132.822 137.1H166.922C168.522 137.1 169.822 136.7 170.922 135.9C171.922 135.2 171.922 134.8 171.922 134.6V112.3C171.922 109.4 173.922 107.2 176.822 107C179.422 106.5 181.822 107.7 183.022 109.9L198.922 136.1ZM104.422 71.7999C105.322 72.0999 106.222 72.4999 107.022 72.8999C111.622 75.0999 115.822 77.8999 119.322 81.2999C119.722 81.6999 120.122 82.0999 120.622 82.5999L121.322 49.8999C120.722 54.1999 118.622 58.4999 115.222 62.6999C112.722 65.7999 109.222 68.7999 104.422 71.7999ZM55.6223 117.6C54.5223 117.6 53.6223 117.3 53.0223 117C51.1223 116.2 49.8223 114.3 49.8223 112V91.1999C49.8223 90.1999 50.1223 88.2999 52.2223 86.6999C53.5223 85.6999 55.1223 85.3999 56.8223 85.7999C58.0223 85.9999 59.6223 86.3999 61.5223 86.7999C63.7223 87.2999 65.8223 88.0999 67.9223 89.0999C70.1223 90.1999 72.1223 91.5999 73.8223 93.1999C76.0223 95.2999 77.2223 97.9999 77.5223 101C77.7223 104.2 76.7223 107.1 74.5223 109.4C72.9223 111.1 70.9223 112.6 68.8223 113.8C66.7223 115 64.4223 115.8 62.1223 116.4C60.0223 116.9 58.3223 117.3 57.1223 117.5C56.4223 117.6 56.0223 117.6 55.6223 117.6ZM303.622 97.9999C302.122 97.9999 300.922 97.5999 299.822 96.7999C298.422 95.7999 297.622 94.0999 297.622 92.2999C297.622 91.9999 297.622 91.6999 297.722 91.3999L301.722 71.4999C301.722 71.2999 301.822 71.0999 301.822 70.9999C302.322 69.6999 303.422 67.8999 306.422 67.1999C306.722 67.0999 307.122 67.0999 307.422 67.0999C309.922 67.0999 311.922 68.3999 312.922 70.5999C313.022 70.7999 313.122 71.0999 313.222 71.2999L318.322 90.9999C318.422 91.3999 318.422 91.6999 318.422 92.0999C318.422 93.3999 318.122 94.5999 317.422 95.4999C317.122 95.8999 316.822 96.2999 316.422 96.5999C315.322 97.3999 314.022 97.7999 312.522 97.7999L303.622 97.9999ZM307.922 85.2999L307.122 89.1999H308.922L307.922 85.2999ZM176.422 75.7999C175.622 75.7999 174.822 75.5999 173.922 75.2999C173.522 75.1999 173.222 74.9999 172.822 74.6999C170.722 73.0999 170.422 71.1999 170.422 70.1999V49.1999C170.422 47.1999 171.622 45.3999 173.522 44.4999C173.622 44.3999 173.822 44.3999 173.922 44.2999C175.322 43.7999 176.622 43.6999 177.722 43.9999C178.922 44.1999 180.322 44.4999 182.122 44.8999C184.322 45.3999 186.522 46.0999 188.622 47.0999C190.822 48.1999 192.822 49.5999 194.522 51.2999C196.622 53.3999 197.722 55.9999 198.022 58.9999C198.222 62.2999 197.322 65.1999 195.222 67.3999C193.622 69.1999 191.622 70.6999 189.322 71.8999C187.122 72.9999 184.922 73.8999 182.522 74.4999C180.522 74.9999 178.922 75.2999 177.722 75.5999C177.322 75.6999 176.922 75.7999 176.422 75.7999ZM55.8223 66.2999C55.1223 66.2999 54.3223 66.1999 53.5223 65.8999C51.3223 65.1999 49.8223 63.2999 49.8223 60.8999V43.4999C49.8223 42.4999 50.1223 40.5999 52.2223 38.9999C53.1223 38.2999 54.6223 37.5999 56.9223 38.0999C57.0223 38.0999 57.1223 38.0999 57.2223 38.1999C58.1223 38.3999 59.3223 38.6999 60.8223 39.0999C62.6223 39.5999 64.4223 40.1999 66.0223 41.0999C67.8223 41.9999 69.4223 43.2999 70.7223 44.7999C72.4223 46.6999 73.4223 48.8999 73.6223 51.4999C73.8223 54.2999 73.1223 56.7999 71.4223 58.8999C70.1223 60.4999 68.5223 61.8999 66.6223 62.9999C64.9223 63.9999 63.0223 64.7999 61.1223 65.2999C59.6223 65.6999 58.2223 66.0999 57.1223 66.2999C56.8223 66.2999 56.3223 66.2999 55.8223 66.2999ZM58.5223 47.4999V56.7999C58.6223 56.7999 58.7223 56.6999 58.8223 56.6999C60.0223 56.3999 61.1223 55.8999 62.2223 55.2999C63.1223 54.7999 63.9223 54.0999 64.5223 53.2999C64.7223 53.0999 64.8223 52.7999 64.8223 52.1999C64.7223 51.4999 64.5223 50.9999 64.1223 50.5999C63.4223 49.7999 62.6223 49.1999 61.7223 48.7999C60.8223 48.1999 59.7223 47.7999 58.5223 47.4999C58.5223 47.4999 58.6223 47.4999 58.5223 47.4999Z" fill="black"/>
<path d="M629.922 53C625.922 45.2 620.522 38.5 613.622 32.7C606.722 26.9 598.622 22.4 589.322 19C580.022 15.6 570.122 14 559.622 14C549.122 14 539.222 15.7 529.922 19C520.622 22.4 512.522 26.9 505.622 32.7C499.822 37.6 495.022 43.2 491.322 49.5L498.422 26.2C499.122 24 498.522 22.2 496.622 20.7C494.822 19.1 492.522 18.3 489.522 18.3H449.422C446.922 18.3 444.822 18.8 443.122 19.9C441.422 21 440.422 22.5 440.122 24.3L432.822 82.4C432.522 83.1 432.022 83.4 431.222 83.4C430.222 83.4 429.622 83.1 429.622 82.4L419.022 23.8C418.722 22.1 417.622 20.6 415.822 19.5C414.022 18.4 411.822 17.8 409.322 18L371.422 19.6C368.722 19.8 366.522 20.6 364.822 22C363.222 23.4 362.622 25.1 363.022 27L387.622 133.5C387.922 135 388.922 136.3 390.722 137.4C392.522 138.5 394.522 139 396.722 139L456.822 138.5C459.022 138.5 460.922 138 462.622 137C464.222 136 465.322 134.8 465.722 133.3L483.522 75.1C483.522 76 483.422 76.9 483.422 77.8C483.422 86.6 485.422 94.9 489.422 102.6C493.422 110.4 498.822 117.1 505.722 123C512.622 128.8 520.722 133.4 530.022 136.7C539.322 140 549.222 141.7 559.722 141.7C570.222 141.7 580.122 140 589.422 136.7C598.722 133.4 606.822 128.8 613.722 123C620.622 117.2 626.022 110.4 630.022 102.6C634.022 94.8 636.022 86.6 636.022 77.8C636.022 69 633.922 60.8 629.922 53ZM584.222 89.6C582.922 92.3 581.122 94.7 578.922 96.7C576.722 98.7 574.122 100.3 571.022 101.4C568.022 102.5 564.822 103.1 561.422 103.1C558.022 103.1 554.822 102.5 551.822 101.4C548.822 100.3 546.122 98.7 543.922 96.7C541.722 94.7 539.922 92.3 538.622 89.6C537.322 86.9 536.622 84 536.622 81C536.622 78 537.322 75.1 538.622 72.4C539.922 69.7 541.722 67.3 543.922 65.3C546.122 63.3 548.722 61.7 551.822 60.6C554.822 59.5 558.022 58.9 561.422 58.9C564.822 58.9 568.022 59.5 571.022 60.6C574.022 61.7 576.722 63.3 578.922 65.3C581.122 67.3 582.922 69.7 584.222 72.4C585.522 75.1 586.222 78 586.222 81C586.222 84 585.522 86.9 584.222 89.6Z" fill="black"/>
<path d="M559.622 146.1C548.722 146.1 538.222 144.3 528.422 140.9C518.622 137.4 510.022 132.6 502.822 126.4C495.522 120.2 489.722 112.9 485.422 104.7C483.922 101.8 482.722 98.7998 481.722 95.6998L469.822 134.7C469.122 137.2 467.322 139.4 464.822 140.9C462.522 142.3 459.822 143 456.822 143L396.822 143.5C393.722 143.5 391.022 142.7 388.522 141.2C385.022 139.1 383.822 136.4 383.422 134.5L358.722 28.0998C357.922 24.4998 359.022 21.1998 361.922 18.7998L362.022 18.6998C364.522 16.6998 367.522 15.5998 371.022 15.2998C371.122 15.2998 371.122 15.2998 371.222 15.2998L409.122 13.6998C412.522 13.5998 415.522 14.2998 418.122 15.8998C421.822 18.1998 423.022 21.0998 423.322 23.1998L430.722 63.7998L435.722 23.7998V23.6998C436.222 20.5998 437.922 18.0998 440.722 16.2998C443.122 14.7998 446.022 13.9998 449.422 13.9998H489.522C493.522 13.9998 496.922 15.1998 499.422 17.4998C502.622 20.0998 503.822 23.8998 502.522 27.6998L501.722 30.3998C502.122 30.0998 502.422 29.7998 502.822 29.4998C510.022 23.3998 518.622 18.5998 528.422 15.0998C538.122 11.5998 548.622 9.7998 559.622 9.7998C570.522 9.7998 581.022 11.5998 590.822 15.0998C600.622 18.5998 609.222 23.4998 616.422 29.4998C623.722 35.5998 629.522 42.8998 633.822 51.0998C638.122 59.4998 640.322 68.4998 640.322 77.8998C640.322 87.3998 638.122 96.3998 633.822 104.7C629.622 112.9 623.722 120.2 616.422 126.4C609.222 132.5 600.522 137.4 590.822 140.9C581.022 144.3 570.522 146.1 559.622 146.1ZM483.422 70.7998C483.622 70.7998 483.922 70.7998 484.222 70.8998C486.422 71.2998 487.922 73.1998 487.822 75.3998C487.822 76.1998 487.722 76.9998 487.722 77.7998C487.722 85.7998 489.622 93.4998 493.222 100.6C496.922 107.8 502.022 114.2 508.422 119.6C514.822 125 522.522 129.4 531.322 132.5C540.122 135.6 549.622 137.2 559.522 137.2C569.422 137.2 578.922 135.6 587.722 132.5C596.522 129.4 604.222 125 610.622 119.6C617.022 114.2 622.122 107.8 625.822 100.6C629.522 93.4998 631.322 85.7998 631.322 77.7998C631.322 69.7998 629.422 62.0998 625.822 54.9998C622.122 47.7998 617.022 41.3998 610.622 36.0998C604.222 30.6998 596.422 26.3998 587.622 23.1998C578.822 19.9998 569.322 18.3998 559.422 18.3998C549.522 18.3998 540.022 19.9998 531.222 23.1998C522.422 26.3998 514.722 30.6998 508.222 36.0998C502.822 40.5998 498.322 45.8998 494.822 51.7998C493.722 53.6998 491.322 54.4998 489.322 53.5998C487.322 52.6998 486.222 50.3998 486.922 48.2998L494.022 24.9998V24.8998C494.122 24.6998 494.122 24.5998 494.122 24.5998C494.122 24.5998 494.022 24.4998 493.722 24.1998C493.622 24.0998 493.522 24.0998 493.522 23.9998C492.622 23.0998 491.222 22.6998 489.422 22.6998H449.322C447.622 22.6998 446.322 22.9998 445.322 23.5998C444.522 24.0998 444.422 24.5998 444.322 24.8998L437.022 82.8998C436.922 83.2998 436.822 83.7998 436.622 84.1998C435.622 86.3998 433.522 87.6998 431.122 87.6998C427.322 87.6998 425.422 85.2998 425.222 82.8998L414.622 24.4998C414.622 24.2998 414.522 23.7998 413.422 23.0998C412.322 22.3998 411.022 22.0998 409.322 22.1998L371.522 23.7998C369.822 23.9998 368.422 24.3998 367.422 25.1998C367.022 25.4998 367.022 25.5998 367.122 25.8998L391.722 132.4C391.722 132.5 391.722 132.5 391.722 132.6C391.722 132.7 392.022 133.1 392.822 133.6C393.922 134.3 395.122 134.6 396.522 134.6L456.522 134.1C458.022 134.1 459.122 133.8 460.022 133.3C461.022 132.7 461.122 132.3 461.222 132.1L479.022 73.8998C479.822 72.0998 481.522 70.7998 483.422 70.7998ZM561.422 107.5C557.522 107.5 553.722 106.8 550.222 105.5C546.722 104.2 543.522 102.3 540.922 99.8998C538.322 97.4998 536.222 94.6998 534.622 91.4998C533.022 88.1998 532.222 84.5998 532.222 80.8998C532.222 77.1998 533.022 73.6998 534.622 70.2998C536.222 67.0998 538.322 64.2998 540.922 61.8998C543.522 59.4998 546.622 57.6998 550.222 56.2998C553.722 54.9998 557.522 54.2998 561.422 54.2998C565.322 54.2998 569.122 54.9998 572.622 56.2998C576.122 57.5998 579.322 59.4998 581.922 61.8998C584.522 64.2998 586.622 67.0998 588.222 70.2998C589.822 73.5998 590.622 77.1998 590.622 80.8998C590.622 84.5998 589.822 88.1998 588.222 91.4998C586.622 94.6998 584.522 97.4998 581.922 99.8998C579.322 102.3 576.222 104.1 572.622 105.5C569.022 106.8 565.322 107.5 561.422 107.5ZM561.422 63.1998C558.522 63.1998 555.822 63.6998 553.322 64.5998C550.822 65.4998 548.622 66.7998 546.822 68.4998C545.022 70.0998 543.622 72.0998 542.522 74.2998C541.522 76.3998 541.022 78.5998 541.022 80.9998C541.022 83.3998 541.522 85.5998 542.522 87.6998C543.622 89.8998 545.022 91.7998 546.822 93.4998C548.622 95.0998 550.822 96.3998 553.322 97.3998C555.822 98.2998 558.522 98.7998 561.422 98.7998C564.322 98.7998 567.022 98.2998 569.522 97.3998C572.022 96.4998 574.222 95.1998 576.022 93.4998C577.822 91.8998 579.322 89.8998 580.322 87.6998C581.322 85.5998 581.822 83.3998 581.822 80.9998C581.822 78.5998 581.322 76.3998 580.322 74.2998C579.222 72.0998 577.822 70.1998 576.022 68.4998C574.222 66.8998 572.022 65.5998 569.522 64.5998C566.922 63.6998 564.222 63.1998 561.422 63.1998Z" fill="black"/>
<path d="M346.522 13.7C346.122 12.2 345.022 11 343.322 10.1C341.622 9.2 339.622 8.7 337.422 8.7L281.822 9.2C279.722 9.2 277.922 9.6 276.322 10.5C274.722 11.4 273.622 12.6 273.022 14L239.122 107.3L220.622 78.9C223.422 77.6 226.022 76 228.522 73.8C230.922 71.7 233.022 69.2 234.822 66.4C236.622 63.6 237.922 60.7 238.922 57.5C239.922 54.4 240.322 51.1 240.322 47.8C240.322 42.8 239.022 37.7 236.322 32.7C233.622 27.6 229.322 23.1 223.222 19.1C217.122 15.1 209.122 11.8 199.122 9.3C189.122 6.8 176.822 5.5 162.222 5.5C157.922 5.5 153.422 5.6 148.722 5.9C144.022 6.2 139.022 6.6 133.822 7.1C131.622 7.3 129.722 8 128.322 9.2C126.822 10.4 126.122 11.8 126.122 13.4L124.622 84C124.422 83.5 124.122 82.9 123.822 82.4C121.922 78.6 119.322 75.3 116.222 72.3C113.022 69.3 109.322 66.9 105.122 65C101.022 63 96.6223 62 92.0223 61.8C101.622 57.3 108.222 52.9 111.722 48.7C115.222 44.5 117.022 40.4 117.022 36.4C117.022 34 116.622 31.7 115.722 29.5C113.622 24.3 110.322 20.1 105.722 16.9C101.122 13.7 95.8223 11.2 89.6223 9.5C83.5223 7.7 76.8223 6.6 69.6223 6C62.6223 5.3 55.4223 5 48.2223 5C42.5223 5 37.0223 5.1 31.5223 5.3C26.1223 5.4 20.9223 5.6 16.0223 5.8C13.5223 5.9 11.4223 6.6 9.72231 7.8C8.02231 9.1 7.12231 10.6 7.12231 12.4V119.3C7.12231 121.1 7.92231 122.6 9.52231 123.8C11.1223 125 13.2223 125.7 15.7223 125.9C20.6223 126.1 25.3223 126.3 29.8223 126.4C34.3223 126.5 38.6223 126.6 42.8223 126.6C60.8223 126.6 75.7223 125.6 87.5223 123.5C99.3223 121.5 108.222 118.4 114.422 114.2C118.722 111.4 121.822 108.2 123.822 104.6C124.022 104.3 124.122 104 124.322 103.7L124.022 120.2C124.022 122 124.922 123.5 126.722 124.7C128.522 126.1 130.622 126.7 133.122 126.7H167.222C169.722 126.7 171.922 126 173.722 124.7C175.522 123.4 176.522 121.9 176.522 120.1V98.7C176.522 98.1 176.922 97.8 177.622 97.8C178.522 97.6 179.122 97.8 179.422 98.4L195.122 124.1C196.022 125.5 197.422 126.5 199.222 127.2C201.022 127.9 203.022 128.1 205.122 127.9L237.222 124.1C237.422 124.1 237.622 124 237.822 124C239.422 125.1 241.422 125.8 244.122 126L284.222 126.3C286.622 126.3 288.622 125.8 290.322 124.7C292.022 123.7 293.022 122.3 293.322 120.8L294.922 114.4C294.922 113.8 295.422 113.5 296.522 113.5L322.022 113.7C322.722 113.7 323.322 114 323.622 114.6L325.222 120.6C325.622 122.2 326.722 123.4 328.422 124.4C330.122 125.4 332.122 125.9 334.322 125.9H373.322C376.122 125.9 378.522 125.1 380.422 123.4C382.322 121.7 382.922 119.9 382.222 117.9L346.522 13.7ZM54.1223 32.8C54.1223 32.5 54.3223 32.2 54.8223 31.9C55.1223 31.7 55.5223 31.6 56.1223 31.7C57.0223 31.9 58.2223 32.2 59.6223 32.6C61.1223 33 62.5223 33.5 63.8223 34.2C65.1223 34.9 66.3223 35.8 67.3223 36.9C68.3223 38 68.9223 39.3 69.1223 40.9C69.2223 42.5 68.8223 43.8 67.9223 45C66.9223 46.2 65.8223 47.1 64.4223 47.9C63.0223 48.7 61.5223 49.3 60.0223 49.7C58.4223 50.1 57.2223 50.4 56.1223 50.6C55.8223 50.7 55.4223 50.7 54.8223 50.4C54.4223 50.3 54.1223 50 54.1223 49.6V32.8ZM71.2223 93.3C69.9223 94.7 68.3223 95.8 66.5223 96.7C64.7223 97.6 62.8223 98.3 60.8223 98.8C58.8223 99.3 57.2223 99.6 56.0223 99.8C55.4223 99.9 55.0223 99.9 54.7223 99.6C54.3223 99.5 54.0223 99.2 54.0223 98.7V78.7C54.0223 78.4 54.2223 78.1 54.7223 77.8C55.0223 77.6 55.4223 77.5 55.8223 77.6C57.0223 77.8 58.5223 78.1 60.3223 78.5C62.1223 78.9 64.0223 79.5 65.7223 80.4C67.5223 81.2 69.1223 82.3 70.5223 83.6C71.9223 84.9 72.7223 86.5 72.8223 88.4C73.1223 90.3 72.5223 91.9 71.2223 93.3ZM191.922 53C190.622 54.4 189.122 55.5 187.222 56.4C185.322 57.3 183.422 58 181.422 58.5C179.422 59 177.822 59.3 176.622 59.5C176.322 59.6 175.922 59.6 175.322 59.3C174.922 59 174.622 58.7 174.622 58.4V38.3C174.622 38 174.822 37.7 175.322 37.5C175.922 37.3 176.322 37.2 176.622 37.3C177.822 37.5 179.322 37.8 181.122 38.2C182.922 38.6 184.822 39.2 186.522 40C188.322 40.8 189.822 41.9 191.222 43.2C192.522 44.5 193.322 46.1 193.422 48C193.722 50 193.222 51.6 191.922 53ZM314.022 80.6C313.722 80.8 313.322 80.9 312.722 80.9L303.622 81.1C303.222 81.1 302.822 81 302.522 80.8C302.222 80.6 302.122 80.3 302.122 79.9L306.122 60.8C306.222 60.4 306.822 60.1 307.722 59.9C308.422 59.9 309.022 60.2 309.322 60.8L314.422 79.8C314.222 80 314.122 80.4 314.022 80.6Z" fill="white"/>
<path d="M629.922 41.8999C625.922 34.3999 620.522 27.8999 613.622 22.3999C606.722 16.8999 598.622 12.4999 589.322 9.1999C580.022 5.9999 570.122 4.3999 559.622 4.3999C549.122 4.3999 539.222 5.9999 529.922 9.2999C520.622 12.4999 512.522 16.8999 505.622 22.4999C499.822 27.1999 495.022 32.5999 491.322 38.5999L498.422 16.1999C499.122 14.0999 498.522 12.2999 496.622 10.8999C494.822 9.2999 492.522 8.4999 489.522 8.4999H449.422C446.922 8.4999 444.822 8.9999 443.122 10.0999C441.422 11.0999 440.422 12.5999 440.122 14.2999L432.822 70.1999C432.522 70.7999 432.022 71.0999 431.222 71.0999C430.222 71.0999 429.622 70.7999 429.622 70.1999L419.022 13.7999C418.722 12.0999 417.622 10.6999 415.822 9.5999C414.022 8.4999 411.822 7.9999 409.322 8.0999L371.422 9.6999C368.722 9.8999 366.522 10.6999 364.822 12.0999C363.222 13.4999 362.622 15.0999 363.022 16.9999L387.622 119.5C387.922 121 388.922 122.2 390.722 123.3C392.522 124.3 394.522 124.9 396.722 124.9L456.822 124.4C459.022 124.4 460.922 123.9 462.622 123C464.222 122.1 465.322 120.9 465.722 119.4L483.522 63.3999C483.522 64.1999 483.422 65.0999 483.422 65.9999C483.422 74.4999 485.422 82.3999 489.422 89.8999C493.422 97.3999 498.822 103.9 505.722 109.5C512.622 115.1 520.722 119.5 530.022 122.7C539.322 125.9 549.222 127.5 559.722 127.5C570.222 127.5 580.122 125.9 589.422 122.7C598.722 119.5 606.822 115.1 613.722 109.5C620.622 103.9 626.022 97.3999 630.022 89.8999C634.022 82.3999 636.022 74.4999 636.022 65.9999C636.022 57.4999 633.922 49.3999 629.922 41.8999ZM584.222 77.0999C582.922 79.6999 581.122 81.9999 578.922 83.8999C576.722 85.7999 574.122 87.2999 571.022 88.3999C568.022 89.4999 564.822 89.9999 561.422 89.9999C558.022 89.9999 554.822 89.4999 551.822 88.3999C548.822 87.2999 546.122 85.7999 543.922 83.8999C541.722 81.9999 539.922 79.6999 538.622 77.0999C537.322 74.4999 536.622 71.6999 536.622 68.7999C536.622 65.8999 537.322 63.0999 538.622 60.4999C539.922 57.8999 541.722 55.5999 543.922 53.6999C546.122 51.7999 548.722 50.2999 551.822 49.1999C554.822 48.0999 558.022 47.5999 561.422 47.5999C564.822 47.5999 568.022 48.0999 571.022 49.1999C574.022 50.2999 576.722 51.7999 578.922 53.6999C581.122 55.5999 582.922 57.8999 584.222 60.4999C585.522 63.0999 586.222 65.8999 586.222 68.7999C586.222 71.6999 585.522 74.4999 584.222 77.0999Z" fill="white"/>
<path d="M203.722 135.2C201.722 135.2 199.822 134.9 198.022 134.2C195.522 133.2 193.522 131.7 192.222 129.7L179.922 108.8V123.8C179.922 125.9 179.222 128.8 175.722 131.4C173.322 133.2 170.422 134.1 167.122 134.1H133.022C129.722 134.1 126.922 133.2 124.522 131.3C121.222 128.8 120.522 125.9 120.522 123.9L120.622 117C119.322 118.2 117.822 119.3 116.322 120.4C109.722 125 100.222 128.4 88.0223 130.6C76.1223 132.7 60.9223 133.8 42.7223 133.8C38.5223 133.8 34.1223 133.7 29.6223 133.6C25.1223 133.5 20.4223 133.3 15.5223 133.1H15.4223C12.2223 132.8 9.52231 131.9 7.42231 130.2C4.92231 128.3 3.62231 125.8 3.62231 122.9V11.9001C3.62231 9.90008 4.32231 6.90008 7.52231 4.50008C9.72231 2.80008 12.5223 1.80008 15.7223 1.70008C20.7223 1.50008 25.9223 1.30008 31.3223 1.10008C36.8223 0.900083 42.4223 0.900083 48.0223 0.900083C55.4223 0.700083 62.8223 1.00008 70.0223 1.60008C77.4223 2.20008 84.3223 3.50008 90.7223 5.40008C97.2223 7.30008 102.922 10.1001 107.822 13.6001C112.922 17.3001 116.722 22.2001 119.022 28.3001C120.022 30.9001 120.622 33.8001 120.622 36.7001C120.622 41.6001 118.622 46.6001 114.522 51.6001C111.822 54.9001 107.822 58.2001 102.322 61.5001C103.822 62.0001 105.322 62.6001 106.722 63.2001C111.222 65.3001 115.322 68.1001 118.722 71.4001C119.722 72.4001 120.622 73.4001 121.522 74.4001L122.722 12.6001C122.722 10.8001 123.322 8.10008 126.122 5.70008C128.122 4.00008 130.622 3.00008 133.522 2.70008C138.722 2.20008 143.722 1.70008 148.522 1.50008C153.322 1.20008 157.922 1.10008 162.222 1.10008C177.122 1.10008 189.822 2.50008 200.022 5.10008C210.322 7.80008 218.822 11.4001 225.122 15.8001C231.622 20.3001 236.422 25.5001 239.322 31.2001C242.222 36.9001 243.722 42.7001 243.722 48.5001C243.722 52.3001 243.222 56.0001 242.122 59.6001C241.122 63.1001 239.522 66.5001 237.622 69.6001C235.722 72.7001 233.322 75.6001 230.722 78.0001C229.022 79.5001 227.222 80.9001 225.422 82.0001L238.222 102.4L269.722 12.2001V12.1001C270.622 9.80008 272.222 8.00008 274.522 6.70008C276.622 5.50008 279.122 4.90008 281.722 4.90008L337.322 4.40008C340.122 4.40008 342.722 5.00008 344.922 6.30008C347.422 7.70008 349.022 9.60008 349.722 12.0001L385.222 120.2C386.422 123.5 385.422 126.8 382.522 129.5C379.922 131.8 376.822 133 373.122 133H334.122C331.322 133 328.722 132.3 326.422 131C323.922 129.5 322.322 127.5 321.722 125L320.522 120.3L297.822 120.2L296.722 125.1C296.422 126.9 295.322 129.4 292.222 131.3C290.022 132.7 287.322 133.5 284.322 133.5L244.122 133.2C244.022 133.2 244.022 133.2 243.922 133.2C241.322 133 239.022 132.4 237.122 131.3L205.522 135.1C204.922 135.2 204.322 135.2 203.722 135.2ZM182.422 99.5001L198.122 126.1C198.522 126.8 199.322 127.4 200.522 127.8C201.922 128.3 203.322 128.5 204.822 128.3L236.922 124.4C237.022 124.4 237.122 124.4 237.222 124.4H237.422C238.322 124.3 239.222 124.5 240.022 125C241.022 125.8 242.522 126.2 244.322 126.4L284.322 126.7C286.022 126.7 287.422 126.3 288.522 125.6C289.722 124.9 289.922 124.2 290.022 123.8C290.022 123.7 290.022 123.7 290.022 123.6L291.522 117.2C291.722 115.3 293.322 113.3 296.422 113.3L321.922 113.5C323.922 113.5 325.722 114.6 326.522 116.5C326.622 116.7 326.722 116.9 326.722 117.1L328.322 123.3C328.422 123.7 328.722 124.4 330.022 125.2C331.222 125.9 332.522 126.3 334.122 126.3H373.122C375.022 126.3 376.622 125.7 377.922 124.6C379.122 123.5 378.922 123 378.722 122.6L343.322 14.1001V14.0001C343.222 13.8001 343.022 13.0001 341.722 12.3001C340.522 11.6001 339.222 11.3001 337.522 11.3001L281.922 11.8001C280.422 11.8001 279.122 12.1001 278.022 12.7001C276.822 13.4001 276.422 14.1001 276.222 14.6001L242.422 111.5C242.022 112.7 240.922 113.6 239.622 113.8C238.322 113.9 237.022 113.3 236.322 112.2L217.822 82.6001C217.322 81.8001 217.122 80.8001 217.422 79.8001C217.722 78.8001 218.322 78.1001 219.222 77.7001C221.722 76.5001 224.022 75.0001 226.222 73.0001C228.422 71.0001 230.322 68.7001 231.922 66.1001C233.522 63.5001 234.822 60.7001 235.622 57.7001C236.522 54.8001 236.922 51.7001 236.922 48.6001C236.922 44.0001 235.722 39.2001 233.322 34.4001C230.922 29.7001 226.922 25.3001 221.322 21.5001C215.622 17.6001 207.922 14.3001 198.322 11.8001C188.722 9.30008 176.522 8.00008 162.322 8.00008C158.122 8.00008 153.622 8.10008 149.022 8.40008C144.322 8.70008 139.422 9.10008 134.322 9.60008C132.822 9.80008 131.522 10.2001 130.622 11.0001C129.622 11.8001 129.622 12.4001 129.622 12.7001L128.122 86.1001C128.122 87.7001 126.922 89.1001 125.322 89.4001C123.722 89.7001 122.122 88.9001 121.522 87.4001C121.322 86.9001 121.122 86.4001 120.822 85.9001C119.122 82.4001 116.722 79.1001 113.822 76.3001C110.922 73.5001 107.522 71.2001 103.722 69.4001C99.9223 67.6001 95.9223 66.7001 91.8223 66.5001C90.2223 66.4001 88.9223 65.3001 88.6223 63.8001C88.3223 62.3001 89.0223 60.7001 90.5223 60.0001C99.6223 55.6001 105.822 51.3001 109.122 47.3001C112.122 43.5001 113.722 40.0001 113.722 36.7001C113.722 34.6001 113.322 32.6001 112.622 30.8001C110.722 25.9001 107.922 22.2001 103.822 19.2001C99.6223 16.1001 94.5223 13.7001 88.7223 12.0001C82.8223 10.2001 76.3223 9.00008 69.5223 8.50008C62.4223 7.90008 55.3223 7.60008 48.2223 7.60008C42.7223 7.60008 37.1223 7.70008 31.7223 7.80008C26.4223 8.00008 21.2223 8.10008 16.2223 8.40008C14.4223 8.50008 12.9223 8.90008 11.8223 9.80008C10.7223 10.6001 10.6223 11.3001 10.6223 11.8001V122.8C10.6223 123.4 10.7223 124 11.7223 124.7C12.8223 125.5 14.2223 126 16.1223 126.2C20.9223 126.4 25.6223 126.6 30.0223 126.7C34.4223 126.8 38.8223 126.9 42.9223 126.9C60.6223 126.9 75.5223 125.9 87.0223 123.8C98.2223 121.8 106.822 118.7 112.622 114.7C116.422 112.1 119.322 109.1 121.022 105.9C121.122 105.7 121.222 105.5 121.322 105.3L121.422 105.1C122.122 103.7 123.722 102.9 125.322 103.3C126.922 103.7 127.922 105.1 127.922 106.7L127.622 123.9C127.622 124.2 127.622 124.9 128.922 125.8L129.022 125.9C130.222 126.8 131.622 127.3 133.322 127.3H167.422C169.222 127.3 170.722 126.9 171.922 125.9C173.322 124.9 173.322 124.2 173.322 123.9V101.6C173.322 99.2001 175.022 97.4001 177.422 97.2001C179.422 96.6001 181.422 97.6001 182.422 99.5001ZM55.6223 106C54.7223 106 53.9223 105.8 53.4223 105.5C51.8223 104.8 50.7223 103.3 50.7223 101.4V80.6001C50.7223 79.8001 51.0223 78.2001 52.8223 76.9001C53.9223 76.1001 55.2223 75.8001 56.6223 76.1001C57.8223 76.3001 59.3223 76.7001 61.2223 77.1001C63.3223 77.6001 65.4223 78.3001 67.4223 79.3001C69.5223 80.3001 71.4223 81.6001 73.0223 83.2001C75.0223 85.2001 76.1223 87.6001 76.4223 90.4001C76.6223 93.3001 75.7223 95.9001 73.7223 98.0001C72.1223 99.7001 70.3223 101.1 68.2223 102.2C66.2223 103.3 64.0223 104.2 61.7223 104.7C59.6223 105.2 58.0223 105.6 56.7223 105.8C56.3223 106 55.9223 106 55.6223 106ZM57.6223 83.3001V98.8001C58.3223 98.6001 59.2223 98.4001 60.1223 98.2001C61.8223 97.8001 63.4223 97.2001 64.9223 96.3001C66.4223 95.5001 67.6223 94.5001 68.7223 93.4001C69.4223 92.7001 69.6223 92.0001 69.5223 91.0001C69.4223 89.9001 69.0223 89.0001 68.2223 88.2001C67.1223 87.1001 65.7223 86.2001 64.3223 85.5001C62.8223 84.8001 61.2223 84.2001 59.6223 83.8001C58.9223 83.6001 58.2223 83.4001 57.6223 83.3001ZM303.622 86.4001C302.422 86.4001 301.322 86.1001 300.422 85.4001C299.222 84.6001 298.622 83.2001 298.622 81.7001C298.622 81.5001 298.622 81.2001 298.722 81.0001L302.722 61.1001C302.722 61.0001 302.822 60.8001 302.822 60.7001C303.222 59.6001 304.222 58.1001 306.822 57.5001C307.122 57.4001 307.322 57.4001 307.622 57.4001C309.722 57.4001 311.422 58.5001 312.322 60.4001C312.422 60.6001 312.422 60.8001 312.522 61.0001L317.622 80.7001C317.722 81.0001 317.722 81.3001 317.722 81.6001C317.722 82.7001 317.422 83.7001 316.922 84.5001C316.722 84.8001 316.422 85.1001 316.122 85.4001C315.222 86.1001 314.122 86.4001 312.722 86.4001H303.622ZM307.822 70.4001L306.022 79.6001L310.222 79.5001L307.822 70.4001ZM176.422 64.2001C175.722 64.2001 175.022 64.1001 174.222 63.8001C173.922 63.7001 173.622 63.5001 173.422 63.3001C171.622 62.0001 171.322 60.4001 171.322 59.6001V38.6001C171.322 37.0001 172.322 35.5001 173.922 34.7001C174.022 34.6001 174.122 34.6001 174.222 34.6001C175.422 34.1001 176.522 34.1001 177.522 34.3001C178.722 34.5001 180.122 34.8001 181.922 35.2001C184.022 35.6001 186.122 36.4001 188.122 37.4001C190.222 38.4001 192.122 39.8001 193.722 41.4001C195.622 43.3001 196.722 45.7001 196.922 48.5001C197.122 51.5001 196.222 54.2001 194.422 56.2001C192.922 57.9001 191.022 59.4001 188.822 60.5001C186.722 61.6001 184.522 62.4001 182.222 63.0001C180.222 63.5001 178.622 63.8001 177.422 64.1001C177.222 64.1001 176.822 64.2001 176.422 64.2001ZM178.222 41.4001V57.0001C178.922 56.8001 179.822 56.6001 180.722 56.4001C182.422 56.0001 184.122 55.3001 185.722 54.5001C187.222 53.7001 188.422 52.8001 189.422 51.7001C190.022 51.0001 190.322 50.2001 190.222 49.0001C190.122 47.9001 189.722 47.0001 189.022 46.2001C188.022 45.1001 186.722 44.2001 185.322 43.5001C183.822 42.8001 182.222 42.2001 180.722 41.9001C179.722 41.7001 178.922 41.5001 178.222 41.4001ZM55.8223 54.8001C55.2223 54.8001 54.5223 54.7001 53.8223 54.4001C52.0223 53.9001 50.8223 52.2001 50.8223 50.3001V32.9001C50.8223 32.1001 51.1223 30.5001 52.9223 29.2001C53.7223 28.7001 54.9223 28.1001 56.9223 28.4001C57.0223 28.4001 57.0223 28.4001 57.1223 28.4001C58.0223 28.6001 59.2223 28.9001 60.7223 29.3001C62.4223 29.8001 64.1223 30.4001 65.7223 31.2001C67.4223 32.1001 68.9223 33.3001 70.2223 34.7001C71.7223 36.4001 72.6223 38.5001 72.8223 40.8001C73.0223 43.3001 72.3223 45.6001 70.8223 47.5001C69.6223 49.0001 68.1223 50.3001 66.3223 51.3001C64.6223 52.3001 62.9223 53.0001 61.1223 53.5001C59.6223 53.9001 58.2223 54.3001 57.2223 54.5001C56.6223 54.7001 56.2223 54.8001 55.8223 54.8001ZM57.6223 35.6001V47.4001C58.1223 47.3001 58.6223 47.1001 59.1223 47.0001C60.4223 46.6001 61.6223 46.1001 62.7223 45.5001C63.7223 44.9001 64.6223 44.2001 65.3223 43.3001C65.6223 42.9001 65.9223 42.5001 65.8223 41.5001C65.7223 40.6001 65.4223 39.9001 64.9223 39.3001C64.1223 38.5001 63.3223 37.8001 62.3223 37.3001C61.2223 36.7001 60.1223 36.3001 58.8223 36.0001C58.4223 35.8001 57.9223 35.7001 57.6223 35.6001Z" fill="black"/>
<path d="M559.622 134.5C548.822 134.5 538.422 132.8 528.722 129.3C519.022 125.9 510.522 121.1 503.422 115C496.222 108.9 490.522 101.7 486.322 93.6C484.322 89.8 482.822 85.8 481.822 81.7L468.922 123.7C468.222 126 466.722 127.9 464.322 129.4C462.122 130.7 459.622 131.4 456.822 131.4L396.722 131.9C393.822 131.9 391.222 131.2 388.922 129.8C386.322 128.2 384.722 126.2 384.222 123.7L359.622 17.2C358.922 14 359.922 11 362.522 8.8L362.622 8.7C364.922 6.9 367.822 5.8 371.122 5.5H371.222L409.122 3.9C412.322 3.8 415.122 4.5 417.622 6C421.022 8.1 422.122 10.8 422.422 12.6L430.922 59.4L436.722 13.3V13.2C437.122 10.4 438.722 8.1 441.222 6.5C443.522 5.1 446.222 4.3 449.422 4.3H489.522C493.322 4.3 496.422 5.4 498.822 7.6C501.722 10 502.822 13.3 501.622 16.8L499.722 22.9C500.922 21.8 502.122 20.7 503.322 19.6C510.422 13.6 519.022 8.8 528.622 5.3C538.222 1.8 548.622 0 559.522 0C570.322 0 580.722 1.8 590.422 5.3C600.022 8.8 608.622 13.6 615.722 19.6C622.922 25.6 628.722 32.8 632.822 40.9C637.022 49.1 639.222 58 639.222 67.3C639.222 76.6 637.122 85.5 632.822 93.7C628.622 101.8 622.922 109 615.722 115.1C608.522 121.1 600.022 126 590.422 129.4C580.822 132.7 570.422 134.5 559.622 134.5ZM483.422 61.2C483.622 61.2 483.822 61.2 484.022 61.3C485.722 61.6 486.922 63.1 486.822 64.8C486.822 65.6 486.722 66.5 486.722 67.3C486.722 75.5 488.622 83.3 492.322 90.6C496.122 97.9 501.322 104.4 507.822 109.9C514.322 115.4 522.122 119.8 531.022 123C539.922 126.2 549.522 127.8 559.622 127.8C569.722 127.8 579.322 126.2 588.222 123C597.122 119.8 604.922 115.4 611.422 109.9C617.922 104.4 623.122 97.9 626.922 90.6C630.622 83.4 632.522 75.5 632.522 67.3C632.522 59.1 630.622 51.3 626.922 44C623.122 36.7 617.922 30.2 611.422 24.8C604.922 19.3 597.022 14.9 588.222 11.7C579.322 8.5 569.722 6.9 559.722 6.9C549.722 6.9 540.122 8.5 531.222 11.7C522.322 14.9 514.522 19.3 508.022 24.8C502.522 29.4 498.022 34.7 494.422 40.7C493.522 42.2 491.722 42.8 490.122 42.1C488.522 41.4 487.722 39.6 488.222 38L495.322 14.7V14.6C495.522 14 495.622 13.6 494.622 12.8C494.522 12.7 494.522 12.7 494.422 12.6C493.322 11.6 491.722 11.1 489.622 11.1H449.522C447.722 11.1 446.222 11.5 445.022 12.2C443.922 12.9 443.722 13.6 443.622 14.2L436.322 72.3C436.322 72.6 436.222 73 436.022 73.3C435.222 75.2 433.422 76.3 431.322 76.3C428.122 76.3 426.522 74.3 426.422 72.3L415.822 13.9C415.722 13.4 415.522 12.7 414.222 11.9C412.922 11.1 411.422 10.8 409.622 10.9L371.822 12.5C369.922 12.7 368.322 13.2 367.122 14.2C366.322 14.9 366.422 15.3 366.522 15.9L391.122 122.4V122.5C391.222 123.2 392.022 123.8 392.622 124.1C393.822 124.9 395.222 125.2 396.822 125.2L456.922 124.7C458.522 124.7 459.822 124.4 460.922 123.7C462.122 123 462.422 122.4 462.522 121.9L480.322 63.7C480.622 62.1 481.922 61.2 483.422 61.2ZM561.422 95.9C557.622 95.9 554.022 95.3 550.622 94C547.222 92.7 544.222 90.9 541.622 88.6C539.122 86.3 537.022 83.6 535.522 80.5C533.922 77.3 533.222 73.9 533.222 70.4C533.222 66.9 534.022 63.4 535.522 60.3C537.022 57.2 539.122 54.5 541.622 52.2C544.122 49.9 547.122 48.1 550.622 46.8C554.022 45.5 557.622 44.9 561.422 44.9C565.222 44.9 568.822 45.5 572.222 46.8C575.622 48.1 578.622 49.9 581.222 52.2C583.722 54.5 585.822 57.2 587.322 60.3C588.922 63.5 589.622 66.9 589.622 70.4C589.622 74 588.822 77.4 587.322 80.5C585.822 83.6 583.722 86.3 581.222 88.6C578.722 90.9 575.722 92.7 572.222 94C568.822 95.2 565.222 95.9 561.422 95.9ZM561.422 51.6C558.422 51.6 555.622 52.1 553.022 53.1C550.422 54.1 548.122 55.4 546.222 57.2C544.322 58.9 542.822 60.9 541.722 63.3C540.622 65.6 540.122 67.9 540.122 70.4C540.122 72.9 540.622 75.3 541.722 77.5C542.822 79.8 544.422 81.8 546.222 83.6C548.122 85.3 550.422 86.7 553.022 87.7C555.622 88.7 558.522 89.2 561.422 89.2C564.422 89.2 567.222 88.7 569.822 87.7C572.422 86.7 574.722 85.4 576.622 83.6C578.522 81.9 580.022 79.9 581.122 77.5C582.222 75.2 582.722 72.9 582.722 70.4C582.722 67.9 582.222 65.5 581.122 63.3C580.022 61 578.422 59 576.622 57.2C574.722 55.5 572.422 54.1 569.822 53.1C567.222 52.1 564.322 51.6 561.422 51.6Z" fill="black"/>
<path d="M30.7222 162.1C25.9222 162.4 21.0222 163 16.2222 163.6C12.0222 164.2 7.72222 164.7 3.52222 165.5C3.12222 165.6 2.72222 165.6 2.32222 165.8C1.22222 166.1 0.422222 166.9 0.122222 168C-0.377778 169.8 0.722222 171.1 2.22222 171.8C2.92222 172.1 3.62222 172 4.32222 171.6C4.42222 171.6 4.42222 171.6 4.52222 171.5C5.02222 171.4 5.52222 171.3 6.02222 171.2C7.72222 170.9 9.32222 170.7 11.0222 170.4C12.0222 170.3 13.0222 170.1 14.0222 170C14.1222 177.2 14.9222 184.5 14.0222 191.7C13.8222 193.3 15.5222 194.8 17.1222 194.8C18.9222 194.7 19.9222 193.5 20.2222 191.7C21.1222 184.3 20.3222 176.7 20.2222 169.3C21.4222 169.1 22.7222 169 23.9222 168.9C26.2222 168.7 28.4222 168.4 30.7222 168.3C32.3222 168.2 33.8222 167 33.8222 165.2C33.7222 163.5 32.4222 162 30.7222 162.1ZM6.02222 167.9C6.02222 168 6.02222 168 6.02222 168V167.9ZM4.92222 166.4C5.02222 166.5 5.12222 166.5 5.22222 166.6C5.22222 166.7 5.32222 166.7 5.32222 166.8C5.22222 166.7 5.12222 166.6 4.92222 166.4ZM4.02222 171.6H4.12222C4.22222 171.6 4.22222 171.6 4.32222 171.6C4.12222 171.6 4.02222 171.6 4.02222 171.6Z" fill="black"/>
<path d="M60.9222 163.8C59.3222 163.9 57.7222 165.1 57.8222 166.9C58.0222 169.3 58.0222 171.8 58.0222 174.2C55.4222 174.8 52.9222 175.2 50.3222 175.3C48.1222 175.5 46.0222 175.5 43.8222 175.4C44.1222 173.1 44.3222 170.8 44.6222 168.5C44.8222 166.9 43.1222 165.4 41.5222 165.4C39.7222 165.5 38.7222 166.7 38.4222 168.5C38.1222 171 37.8222 173.5 37.5222 176C36.9222 176.6 36.6222 177.4 36.6222 178.2C36.6222 178.8 36.8222 179.3 37.1222 179.8C36.7222 183.6 36.2222 187.5 35.8222 191.3C35.6222 192.9 37.3222 194.4 38.9222 194.4C40.7222 194.3 41.7222 193.1 42.0222 191.3C42.4222 188 42.8222 184.8 43.1222 181.5C48.1222 181.7 53.0222 181.3 57.9222 180.4C57.7222 183.8 57.5222 187.1 57.1222 190.5C56.9222 192.1 58.6222 193.6 60.2222 193.6C62.0222 193.5 63.1222 192.3 63.3222 190.5C64.1222 182.7 64.5222 174.7 64.0222 166.9C63.8222 165.3 62.6222 163.8 60.9222 163.8Z" fill="black"/>
<path d="M80.9222 167C81.2222 167 81.4222 166.9 81.7222 166.9C83.1222 166.7 84.5222 166.6 85.9222 166.6C89.1222 166.4 92.4222 166.3 95.6222 166.2C97.2222 166.1 98.7222 164.8 98.7222 163.1C98.6222 161.5 97.4222 160 95.6222 160C89.3222 160.2 82.8222 160.2 76.6222 161.5C75.3222 161.8 74.4222 163.2 74.4222 164.4C74.3222 171.1 74.1222 177.9 74.0222 184.6C74.0222 186 74.0222 187.3 74.0222 188.7C74.0222 189.6 74.0222 190.6 74.2222 191.4C74.8222 193.4 76.6222 193.8 78.3222 194C79.8222 194.1 81.3222 194.1 82.8222 194C87.0222 193.9 91.1222 193.6 95.3222 193.3C96.9222 193.2 98.4222 192 98.4222 190.2C98.3222 188.7 97.1222 187 95.3222 187.1C91.8222 187.4 88.2222 187.6 84.7222 187.7C83.2222 187.8 81.6222 187.8 80.1222 187.8C80.1222 186.8 80.1222 185.8 80.1222 184.8C80.1222 183.1 80.1222 181.3 80.2222 179.6H80.3222C81.1222 179.5 82.0222 179.4 82.8222 179.3C84.6222 179.1 86.3222 178.8 88.1222 178.8C89.7222 178.8 91.2222 177.4 91.2222 175.7C91.1222 174.1 89.9222 172.6 88.1222 172.6C86.3222 172.6 84.6222 172.9 82.8222 173.1C82.0222 173.2 81.1222 173.3 80.3222 173.4C80.3222 171.2 80.4222 168.9 80.4222 166.7C80.6222 167 80.9222 167 80.9222 167ZM78.2222 188C78.2222 187.9 78.2222 188 78.2222 188V188Z" fill="black"/>
<path d="M135.722 162.8C134.122 162.4 132.322 163.3 131.922 164.9C130.822 169.3 130.422 173.9 129.922 178.4C129.622 180.7 129.422 183 129.122 185.3C129.122 185.6 129.022 185.9 129.022 186.2C129.022 186.3 129.022 186.3 129.022 186.4V186.5C128.922 187 128.922 187.4 128.822 187.9C128.622 188.9 128.522 189.9 128.322 190.9C128.022 192.5 128.722 194.3 130.422 194.7C131.922 195 133.822 194.2 134.222 192.6C135.122 188.1 135.522 183.6 136.022 179.1C136.122 177.9 136.322 176.8 136.422 175.6C136.522 175 136.622 174.4 136.622 173.8V173.7V173.6C136.622 173.3 136.722 173.1 136.722 172.8C137.022 170.8 137.322 168.7 137.822 166.7C138.222 165 137.322 163.2 135.722 162.8Z" fill="black"/>
<path d="M172.622 161C171.122 160.7 169.222 161.5 168.822 163.1C167.422 169.9 166.122 176.7 164.722 183.5C161.122 178.3 157.622 173 154.122 167.8C153.622 167 153.122 166.3 152.622 165.5C151.922 164.5 150.822 163.9 149.622 164C148.422 164.2 147.322 165 147.122 166.2C146.122 170.3 145.622 174.6 145.222 178.8C145.122 179.8 145.022 180.9 144.822 181.9C144.722 182.4 144.722 182.9 144.622 183.4C144.622 183.4 144.522 184.4 144.622 183.8C144.622 184 144.522 184.3 144.522 184.5C144.222 186.5 143.922 188.5 143.422 190.4C143.022 191.9 143.922 193.8 145.522 194.2C147.122 194.6 148.822 193.7 149.322 192.1C150.322 188 150.822 183.7 151.222 179.5C151.322 178.5 151.422 177.4 151.622 176.4C151.722 176 151.722 175.5 151.822 175.1C154.522 179.1 157.222 183.2 160.022 187.2C161.322 189.1 162.522 190.9 163.822 192.7C164.522 193.7 165.522 194.3 166.822 194.2C167.922 194 169.122 193.2 169.322 192C171.222 183 172.822 173.9 174.722 164.8C175.122 163.2 174.322 161.3 172.622 161Z" fill="black"/>
<path d="M183.722 185.5C183.822 184.9 183.822 185.2 183.722 185.5V185.5Z" fill="black"/>
<path d="M201.822 165.2C198.922 163.6 195.722 162.5 192.422 162.1C189.222 161.7 185.822 161.6 182.822 162.7C181.922 163 180.822 163.7 180.722 164.8C179.422 172.7 178.222 180.5 177.322 188.4C177.222 189.5 177.022 190.7 177.122 191.8C177.122 192.3 177.222 192.9 177.522 193.4C177.722 193.8 178.022 194.1 178.422 194.4C179.422 195.1 180.622 195.3 181.822 195.4C183.322 195.5 184.722 195.4 186.222 195.3C190.822 194.8 195.222 193.8 199.322 191.8C203.722 189.7 207.522 186.4 209.322 181.8C210.722 178.3 210.222 174.2 208.222 170.9C206.722 168.5 204.322 166.5 201.822 165.2ZM183.122 191.5C183.122 191.4 183.122 191.4 183.122 191.5C183.122 191.6 183.122 191.6 183.122 191.7C183.122 191.6 183.122 191.5 183.122 191.5ZM203.722 179C203.622 179.2 203.622 179.4 203.522 179.7C203.522 179.7 203.422 180 203.322 180.1C203.222 180.2 203.222 180.4 203.122 180.4C203.022 180.6 202.922 180.8 202.722 181.1C202.522 181.5 202.222 181.8 202.022 182.2L201.922 182.3C201.722 182.5 201.622 182.7 201.422 182.9C201.122 183.2 200.722 183.6 200.422 183.9C200.322 184 200.122 184.2 199.922 184.3C199.822 184.4 199.822 184.4 199.722 184.4C198.922 185 198.122 185.5 197.222 185.9C196.822 186.1 196.322 186.4 195.922 186.6C195.822 186.6 195.022 187 195.522 186.8C196.022 186.6 195.222 186.9 195.122 187C194.222 187.4 193.222 187.7 192.322 188C190.522 188.5 188.722 188.9 186.922 189.2H186.822C186.622 189.2 186.322 189.3 186.122 189.3C185.722 189.3 185.222 189.4 184.822 189.4C184.322 189.4 183.722 189.4 183.222 189.4C183.222 189.2 183.222 189 183.322 188.8C183.422 187.8 183.522 186.8 183.722 185.9C183.722 185.8 183.722 185.7 183.722 185.6V185.7C183.822 185.4 183.822 185.2 183.822 184.9C183.922 184.3 184.022 183.7 184.122 183.1C184.722 178.6 185.422 174.1 186.122 169.6C186.222 169.1 186.322 168.6 186.322 168.1C186.422 168.1 186.522 168.1 186.722 168C186.722 168 186.822 168 186.922 168H187.022C188.222 167.9 189.422 167.9 190.622 168C190.922 168 191.222 168 191.522 168.1C190.722 167.9 191.722 168.1 191.922 168.2C192.522 168.3 193.222 168.4 193.822 168.6C194.422 168.8 195.022 168.9 195.722 169.1C196.022 169.2 196.322 169.3 196.622 169.4C196.822 169.5 197.222 169.6 197.322 169.7C198.322 170.2 199.422 170.7 200.322 171.3C200.522 171.5 200.722 171.6 201.022 171.8C201.122 171.9 201.222 172 201.322 172C201.722 172.4 202.122 172.7 202.522 173.2C202.622 173.3 202.622 173.3 202.722 173.4C202.822 173.6 203.022 173.8 203.122 174C203.222 174.2 203.322 174.4 203.522 174.6L203.622 174.8C203.622 174.9 203.822 175.3 203.822 175.3C203.922 175.7 204.022 176.1 204.122 176.5C204.122 176.5 204.222 176.9 204.222 177.1C204.222 177.2 204.222 177.4 204.222 177.4C204.222 177.6 204.222 177.8 204.222 178C204.222 178 204.222 178.2 204.222 178.3C204.222 178.4 204.222 178.6 204.122 178.7C203.822 178.7 203.722 178.9 203.722 179Z" fill="black"/>
<path d="M221.722 163C220.322 162.7 218.222 163.4 217.922 165.1C216.622 173.6 215.122 182.1 213.822 190.6C213.622 192.2 214.222 194 215.922 194.4C217.322 194.7 219.422 194 219.722 192.3C221.022 183.8 222.522 175.3 223.822 166.8C224.022 165.2 223.422 163.4 221.722 163Z" fill="black"/>
<path d="M253.422 162.8C247.922 163.1 242.422 163.1 236.822 163.1C235.022 163.1 234.022 164.5 233.722 166.2C233.122 170.5 232.722 174.8 232.222 179.1C232.122 180.2 231.922 181.3 231.822 182.5C231.822 182.6 231.822 182.6 231.822 182.7V182.8C231.822 183.1 231.722 183.3 231.722 183.6C231.622 184.1 231.522 184.7 231.522 185.2C231.222 187.2 230.822 189.3 230.322 191.3C229.922 192.8 230.822 194.7 232.422 195.1C234.022 195.5 235.722 194.6 236.222 193C237.122 189.3 237.722 185.5 238.222 181.7C241.622 181.4 245.122 181.7 248.522 181.3C249.322 181.2 250.022 181 250.722 180.4C251.222 179.9 251.622 179 251.622 178.2C251.622 177.4 251.322 176.6 250.722 176C250.122 175.5 249.322 175 248.522 175.1C245.322 175.5 242.122 175.2 238.922 175.4C239.122 173.3 239.322 171.2 239.622 169.2C244.222 169.2 248.922 169.2 253.522 168.9C255.122 168.8 256.622 167.6 256.622 165.8C256.422 164.2 255.122 162.7 253.422 162.8Z" fill="black"/>
<path d="M284.922 164C280.522 163.7 276.122 164 271.822 164.9C271.422 164.2 270.822 163.7 270.022 163.5C268.422 163.1 266.722 164 266.222 165.6C263.922 174.1 262.122 182.8 260.722 191.5C260.422 193.1 261.122 194.9 262.822 195.3C264.322 195.6 266.322 194.9 266.622 193.2C267.322 188.9 268.122 184.6 269.022 180.4C273.622 180.3 278.222 180.1 282.822 180C284.422 180 285.922 178.6 285.922 176.9C285.822 175.3 284.622 173.8 282.822 173.8C278.722 173.9 274.522 174.1 270.422 174.2C270.622 173.3 270.822 172.3 271.122 171.4C272.122 171.2 273.122 170.9 274.122 170.7C274.422 170.6 274.722 170.6 275.022 170.6C275.222 170.6 275.422 170.5 275.622 170.5C275.722 170.5 275.822 170.5 275.822 170.5H275.922C276.122 170.5 276.322 170.5 276.522 170.4C276.822 170.4 277.122 170.3 277.422 170.3C279.922 170.1 282.422 170 285.022 170.2C286.622 170.3 288.122 168.7 288.122 167.1C287.922 165.3 286.622 164.1 284.922 164Z" fill="black"/>
<path d="M297.722 183C297.922 182 298.122 181 298.322 180.1C302.522 179.8 306.722 179.4 310.922 179.1C312.522 179 314.022 177.8 314.022 176C313.922 174.5 312.722 172.8 310.922 172.9C307.122 173.2 303.322 173.5 299.622 173.8C299.922 172.1 300.322 170.4 300.622 168.8C304.022 168.6 307.422 168.3 310.822 167.9C312.422 167.7 313.922 166.6 313.922 164.8C313.822 163.3 312.522 161.5 310.822 161.7C306.622 162.2 302.322 162.5 298.022 162.8C296.722 162.9 295.322 163.7 295.122 165C293.322 173.5 291.122 182.1 290.522 190.8C290.422 192.4 292.022 193.9 293.622 193.9C295.822 193.8 298.022 193.7 300.322 193.6C303.622 193.5 307.022 193.4 310.322 193.7C311.922 193.9 313.422 192.2 313.422 190.6C313.322 188.8 312.122 187.7 310.322 187.5C307.022 187.2 303.622 187.3 300.322 187.4C299.222 187.4 298.122 187.5 297.022 187.5C297.022 187.1 297.122 186.7 297.122 186.3C297.122 186.1 297.122 185.9 297.222 185.7C297.222 185.6 297.222 185.5 297.222 185.4C297.222 185.2 297.322 185 297.322 184.9C297.422 184.4 297.622 183.7 297.722 183Z" fill="black"/>
<path d="M344.522 181C346.122 180.4 347.622 179.5 348.822 178.3C351.622 175.5 352.322 171.4 350.322 167.8C348.522 164.5 344.922 162.7 341.422 162.1C336.922 161.3 332.422 161.4 327.922 162.3C326.822 162.5 326.022 163.5 325.722 164.7V164.8V164.9C323.922 174 322.622 183.2 321.522 192.4C321.322 194 323.022 195.5 324.622 195.5C326.422 195.4 327.522 194.2 327.722 192.4C327.822 191.3 328.022 190.2 328.122 189.2C328.222 188.7 328.222 188.1 328.322 187.6C328.322 187.3 328.422 187 328.422 186.7C328.422 186.7 328.422 186.4 328.522 186.2C328.522 186.1 328.622 185.7 328.622 185.7C328.622 185.4 328.722 185.1 328.722 184.8C328.822 184.3 328.822 183.9 328.922 183.4C329.622 183.4 330.322 183.5 331.022 183.5C331.322 183.5 331.622 183.6 332.022 183.6C332.122 183.6 332.422 183.7 332.522 183.7C333.122 183.8 333.622 183.9 334.222 184C336.722 184.5 339.122 185.2 341.422 186.2C341.522 186.2 341.622 186.3 341.722 186.3C341.722 186.3 341.822 186.3 341.922 186.4C342.222 186.5 342.422 186.6 342.722 186.8C343.322 187.1 343.822 187.3 344.422 187.6C345.522 188.2 346.622 188.8 347.622 189.5C348.122 189.8 348.622 190.2 349.122 190.5C349.322 190.7 349.622 190.8 349.822 191C349.922 191.1 350.022 191.2 350.122 191.3C350.122 191.3 350.122 191.3 350.222 191.4C351.222 192.2 352.222 193 353.122 193.9C354.322 195 356.322 195.1 357.422 193.9C358.522 192.7 358.622 190.8 357.422 189.6C353.622 185.9 349.222 183 344.522 181ZM338.722 167.8C338.822 167.8 338.922 167.8 339.122 167.8C339.222 167.8 339.322 167.8 339.322 167.8C339.622 167.9 340.022 167.9 340.322 168C341.022 168.1 341.622 168.3 342.322 168.5C342.322 168.5 342.522 168.6 342.622 168.6C342.722 168.6 342.722 168.7 342.722 168.7C343.022 168.9 343.322 169 343.622 169.2C343.722 169.2 343.722 169.3 343.822 169.3C343.822 169.3 343.922 169.4 344.022 169.4C344.322 169.6 344.522 169.9 344.822 170.2C344.822 170.2 344.822 170.2 344.922 170.3C345.022 170.4 345.022 170.5 345.122 170.6C345.122 170.7 345.322 170.9 345.322 171.1C345.322 171.2 345.522 171.6 345.522 171.7C345.522 171.8 345.522 172 345.522 171.9C345.522 172 345.522 172.1 345.522 172.1C345.522 172.1 345.522 172.1 345.522 172V172.1C345.522 172.2 345.522 172.3 345.422 172.3C345.422 172.3 345.422 172.3 345.422 172.4V172.5C345.422 172.5 345.422 172.6 345.322 172.7C345.222 172.9 345.022 173.2 344.922 173.4C344.822 173.5 344.722 173.6 344.622 173.7C344.622 173.7 344.322 174 344.222 174.1C344.122 174.2 343.722 174.4 343.622 174.5C343.322 174.7 343.022 174.8 342.722 175C342.522 175.1 342.322 175.2 342.022 175.2C340.622 175.6 339.222 175.9 337.822 176.1C337.822 176.1 337.522 176.1 337.322 176.2C337.222 176.2 336.922 176.2 336.922 176.3C336.422 176.4 336.022 176.4 335.522 176.5C334.622 176.6 333.722 176.7 332.822 176.8C331.822 176.9 330.822 177 329.722 177C330.222 173.9 330.722 170.8 331.322 167.7C332.022 167.6 332.722 167.5 333.722 167.5C335.422 167.6 337.022 167.6 338.722 167.8Z" fill="black"/>
<path d="M345.422 172.5C345.422 172.4 345.422 172.3 345.522 172.3C345.422 172.4 345.322 172.5 345.422 172.5Z" fill="black"/>
<path d="M345.222 172.9C345.222 172.8 345.322 172.7 345.322 172.7C345.322 172.6 345.322 172.7 345.222 172.9Z" fill="black"/>
<path d="M343.922 169.5C343.822 169.5 343.822 169.4 343.722 169.4C343.722 169.4 343.722 169.4 343.922 169.5Z" fill="black"/>
<path d="M381.022 187C380.822 187 380.622 187.1 380.322 187.1C381.522 186.8 380.422 187.1 380.122 187.1C379.422 187.2 378.622 187.2 377.922 187.3C376.122 187.4 374.422 187.5 372.622 187.5C371.522 187.5 370.422 187.6 369.222 187.6C369.522 185 369.822 182.5 370.022 179.9C372.822 179.7 375.622 179.5 378.522 179.3C380.122 179.2 381.622 178 381.622 176.2C381.522 174.6 380.322 173 378.522 173.1C375.822 173.3 373.122 173.5 370.422 173.7C370.422 173.5 370.422 173.3 370.422 173.2C370.422 172.4 370.522 171.6 370.522 170.8C372.222 170.6 374.022 170.3 375.722 170.1C376.222 170 376.822 169.9 377.322 169.9C377.622 169.9 377.922 169.8 378.122 169.8C378.222 169.8 378.322 169.8 378.322 169.8C379.322 169.7 380.422 169.5 381.422 169.5C383.022 169.4 384.522 168.2 384.522 166.4C384.422 164.9 383.222 163.2 381.422 163.3C379.022 163.5 376.722 163.9 374.422 164.2C373.922 164.3 373.322 164.4 372.822 164.4C372.522 164.4 372.222 164.5 372.022 164.5C371.922 164.5 371.822 164.5 371.722 164.5C370.722 164.6 369.622 164.8 368.622 164.8C368.322 164.8 367.922 164.9 367.622 165C367.522 165 367.422 165 367.322 165C365.822 165.1 364.122 166.3 364.222 168.1C364.422 170.4 364.322 172.8 364.122 175.1C363.622 175.6 363.322 176.3 363.422 177C363.422 177.5 363.622 178.1 363.922 178.5C363.622 181.8 363.322 185.1 362.922 188.4C362.822 189.1 362.722 189.9 362.622 190.6C362.422 192.2 364.222 193.7 365.722 193.7C368.022 193.7 370.322 193.6 372.722 193.6C375.922 193.5 379.322 193.5 382.522 192.9C384.122 192.6 385.122 190.6 384.622 189.1C384.222 187.5 382.722 186.7 381.022 187Z" fill="black"/>
<path d="M420.222 159.1C418.622 159.2 417.122 160.4 417.122 162.2C417.222 166.5 417.322 170.7 417.122 175C417.022 177.1 417.022 179.2 416.822 181.2C416.822 181.4 416.822 181.6 416.822 181.7C416.622 181.5 416.422 181.2 416.222 181C414.722 179.3 413.322 177.7 411.822 176C408.922 172.7 406.022 169.5 403.122 166.2C402.722 165.8 402.222 165.5 401.622 165.4C401.222 164.9 400.722 164.6 400.122 164.5C398.622 164.2 396.622 164.9 396.322 166.6C395.022 174.4 393.822 182.2 392.522 190C392.222 191.6 392.922 193.4 394.622 193.8C396.122 194.1 398.122 193.4 398.422 191.7C399.422 185.6 400.422 179.5 401.422 173.5C405.522 178.2 409.722 182.8 413.822 187.5C415.222 189.1 416.722 191.4 419.222 191.1C420.422 190.9 421.422 190.3 422.022 189.2C422.622 188.2 422.622 187.1 422.722 186C423.022 182.3 423.222 178.6 423.322 174.9C423.422 170.7 423.422 166.5 423.222 162.3C423.222 160.5 421.922 159 420.222 159.1Z" fill="black"/>
<path d="M460.322 162.5C450.922 161 441.522 161.2 432.222 163C430.622 163.3 429.622 165.3 430.122 166.8C430.622 168.5 432.222 169.3 433.922 168.9C434.922 168.7 436.022 168.5 437.122 168.3C437.422 168.3 437.722 168.2 437.922 168.2C438.022 168.2 438.122 168.2 438.222 168.2C438.022 168.2 438.022 168.2 438.222 168.2C437.422 176 436.522 184 436.922 191.9C437.022 193.5 438.222 195 440.022 195C441.622 194.9 443.122 193.7 443.122 191.9C442.622 183.9 443.622 175.7 444.422 167.7C445.022 167.7 445.722 167.6 446.322 167.6C448.422 167.6 450.622 167.6 452.722 167.8C453.822 167.9 454.822 168 455.922 168.1C457.122 168.2 457.522 168.3 458.822 168.5C460.422 168.7 462.222 168.1 462.622 166.4C462.822 164.8 462.022 162.8 460.322 162.5Z" fill="black"/>
<path d="M494.022 164.8C490.022 164.2 486.022 163.8 482.022 163.4C480.322 163.2 479.122 164.9 478.922 166.5C478.522 173 478.022 179.5 477.622 186C477.522 188.1 477.322 190.3 477.222 192.4C477.122 194 478.722 195.5 480.322 195.5C483.022 195.4 485.722 195 488.322 194.6C493.022 193.9 497.822 192.9 502.222 191C504.622 190 507.022 188.7 508.922 186.7C511.122 184.3 512.622 181.3 512.822 178C513.022 175 511.722 172.1 509.522 170.1C505.322 166.2 499.322 165.6 494.022 164.8ZM505.722 175C505.622 174.9 505.622 174.9 505.722 175V175ZM504.822 174.1C504.922 174.2 504.922 174.2 504.822 174.1V174.1ZM499.822 185.4C499.722 185.4 499.722 185.4 499.622 185.5C499.822 185.4 500.222 185.2 499.822 185.4ZM499.922 185.3C499.822 185.3 499.622 185.4 499.622 185.4C499.422 185.5 499.222 185.5 499.022 185.6C498.422 185.8 497.922 186 497.322 186.2C496.222 186.6 495.022 186.9 493.922 187.2C491.722 187.7 489.522 188.2 487.322 188.5C487.122 188.5 486.822 188.6 486.622 188.6C486.522 188.6 486.022 188.7 486.022 188.7C485.922 188.7 485.922 188.7 485.922 188.7C485.622 188.7 485.422 188.8 485.122 188.8C484.622 188.9 484.122 188.9 483.622 189C484.022 182.6 484.522 176.1 484.922 169.7C489.522 170.1 493.822 170.7 498.622 171.6C499.622 171.8 500.722 172.1 501.722 172.4C502.022 172.5 502.222 172.6 502.522 172.7C502.622 172.8 502.822 172.8 502.922 172.9C503.322 173.1 503.722 173.3 504.222 173.5C504.422 173.6 504.622 173.7 504.822 173.9C504.922 173.9 504.922 174 505.022 174C505.322 174.3 505.622 174.6 506.022 175C506.022 175 506.122 175.1 506.122 175.2C506.222 175.4 506.322 175.6 506.422 175.8C506.422 175.9 506.522 176 506.522 176.1C506.622 176.4 506.722 176.7 506.722 177C506.722 177 506.722 177 506.722 177.1C506.722 177.2 506.722 177.5 506.722 177.5C506.722 177.8 506.722 178 506.722 178.3C506.722 178.5 506.622 178.6 506.622 178.8C506.522 179.2 506.422 179.5 506.322 179.8V179.9C506.322 180 506.222 180.2 506.222 180.2C506.122 180.5 505.922 180.8 505.722 181C505.522 181.3 505.422 181.5 505.222 181.8C505.222 181.8 504.822 182.3 504.722 182.4C504.422 182.7 504.022 183 503.722 183.3C503.722 183.3 503.722 183.3 503.622 183.4C503.422 183.5 503.222 183.7 503.022 183.8C501.922 184.4 500.922 184.9 499.922 185.3Z" fill="black"/>
<path d="M540.222 185.7C540.322 185.6 540.322 185.6 540.122 185.8C540.222 185.7 540.222 185.7 540.222 185.7Z" fill="black"/>
<path d="M542.122 183.8C542.022 183.9 541.922 184 541.922 184C542.022 183.9 542.022 183.9 542.122 183.8Z" fill="black"/>
<path d="M552.322 161.6C550.622 161.7 549.322 162.9 549.222 164.7C549.222 165.1 549.222 165.6 549.122 166C549.122 166.1 549.122 166.3 549.122 166.4C549.122 166.8 549.122 166.1 549.122 166.1C549.122 166.4 549.022 166.7 549.022 167C548.822 168.1 548.522 169.2 548.222 170.3C547.922 171.4 547.522 172.5 547.222 173.6C547.022 174.1 546.822 174.7 546.622 175.2C546.522 175.5 546.422 175.8 546.322 176.1C546.322 176.2 546.222 176.3 546.222 176.5C546.222 176.5 546.222 176.5 546.222 176.6C545.322 178.6 544.322 180.7 543.122 182.5C542.822 182.9 542.622 183.3 542.322 183.7C542.322 183.7 542.322 183.7 542.322 183.8C542.222 183.9 542.122 184 542.122 184C541.922 184.2 541.822 184.4 541.622 184.5C541.222 184.9 540.922 185.2 540.522 185.6C540.522 185.6 540.522 185.6 540.422 185.7L540.322 185.8L540.222 185.9C540.222 185.9 540.222 185.9 540.322 185.8C540.022 186 539.822 186.2 539.522 186.3C539.122 186.6 538.622 186.8 538.122 187.1C538.022 187.1 537.922 187.2 537.822 187.2C537.522 187.3 537.322 187.4 537.022 187.5C536.522 187.7 536.022 187.8 535.522 187.9C535.422 187.9 535.322 187.9 535.222 188C534.922 188 534.622 188.1 534.322 188.1C533.922 188.1 533.522 188.1 533.122 188.1C533.222 188.1 533.222 188.1 532.922 188C532.822 188 532.722 188 532.622 187.9C532.322 187.8 532.022 187.7 531.722 187.7C531.622 187.7 531.222 187.5 531.222 187.5C531.122 187.4 530.922 187.3 530.822 187.3C530.622 187.2 530.422 187.1 530.322 187C530.222 186.9 530.122 186.8 529.922 186.6C529.922 186.6 529.922 186.6 529.922 186.7V186.6C529.822 186.5 529.822 186.5 529.722 186.4C529.522 186.2 529.622 186.2 529.722 186.3C529.522 186.1 529.322 185.8 529.222 185.6C529.122 185.4 529.022 185.2 528.922 185.1C528.822 184.7 528.622 184.3 528.522 183.9C528.222 183 528.122 182.1 527.922 181.3C527.922 181.2 527.922 181 527.822 180.9C527.722 180.5 527.822 181.2 527.822 181.2C527.722 181 527.722 180.7 527.722 180.5C527.622 180 527.622 179.5 527.622 179C527.522 176.8 527.522 174.5 527.822 172.3C527.822 172.2 527.922 171.3 527.922 171.8C527.822 172.3 527.922 171.5 528.022 171.4C528.122 170.9 528.222 170.4 528.322 169.9C528.522 169 528.722 168.2 529.022 167.3C529.522 165.8 528.422 163.9 526.922 163.5C525.222 163.1 523.722 164 523.122 165.6C521.822 169.5 521.522 173.9 521.622 178C521.722 182.4 522.422 187.3 525.422 190.7C527.022 192.5 529.422 193.6 531.822 194C534.722 194.5 537.622 194 540.322 192.9C545.322 190.8 548.422 186.5 550.722 181.8C553.222 176.6 555.422 170.7 555.622 164.8C555.422 163.1 553.922 161.5 552.322 161.6ZM537.622 187.2C537.722 187.2 538.022 187.1 537.622 187.2V187.2Z" fill="black"/>
<path d="M529.622 186.5C529.622 186.5 529.722 186.5 529.622 186.5C529.622 186.4 529.522 186.3 529.522 186.3C529.622 186.4 529.622 186.4 529.622 186.5Z" fill="black"/>
<path d="M578.422 182.7C576.622 183.6 575.322 184.2 573.622 184.8C572.722 185.1 571.922 185.3 571.022 185.5C570.922 185.5 570.822 185.5 570.722 185.5C570.622 185.5 570.522 185.5 570.422 185.5C570.022 185.5 569.622 185.5 569.222 185.5C569.022 185.5 568.822 185.5 568.522 185.5H568.422C568.122 185.4 567.822 185.4 567.522 185.3C567.222 185.2 567.022 185.1 566.722 185.1C566.822 185.1 566.622 185.1 566.522 185C566.322 184.9 566.022 184.8 565.822 184.6C565.722 184.5 565.522 184.4 565.422 184.3C565.222 184.1 564.922 183.8 564.722 183.6C564.622 183.5 564.522 183.4 564.522 183.2C564.422 183.1 564.322 182.9 564.322 182.8C564.222 182.7 564.222 182.6 564.122 182.5C563.922 182 563.822 181.5 563.722 181C563.722 180.9 563.622 180.3 563.622 180.2C563.622 179.8 563.622 179.5 563.622 179.1C563.622 179.1 563.622 179.1 563.622 179C563.622 178.8 563.722 178.7 563.722 178.5C563.822 178.2 563.922 177.9 564.022 177.5C564.022 177.3 564.122 177.2 564.222 177C564.222 177 564.222 177 564.222 176.9C564.222 176.9 564.222 176.9 564.222 176.8C564.422 176.4 564.622 176.1 564.822 175.7C565.022 175.4 565.222 175.1 565.422 174.8C565.422 174.7 565.622 174.6 565.622 174.5C565.722 174.4 565.722 174.3 565.822 174.2C566.322 173.6 566.922 173 567.522 172.5C567.722 172.3 568.022 172.1 568.222 171.9C568.322 171.9 568.722 171.5 568.822 171.4C569.422 171 570.022 170.6 570.722 170.2C570.722 170.2 570.822 170.2 570.822 170.1H570.922C571.222 170 571.522 169.9 571.722 169.8C572.022 169.7 572.422 169.6 572.722 169.6C572.822 169.6 572.922 169.6 573.022 169.5C573.322 169.5 573.722 169.4 574.022 169.5C574.122 169.5 574.322 169.5 574.422 169.5C574.522 169.5 574.822 169.6 574.922 169.7C575.922 170.5 577.222 170.9 578.422 170.1C579.722 169.3 580.522 167.3 579.522 165.9C578.222 164.2 576.522 163.5 574.422 163.4C572.822 163.3 571.022 163.6 569.522 164.1C565.822 165.3 562.622 168.1 560.322 171.1C557.822 174.4 556.722 178.7 557.722 182.8C558.722 187 562.122 190.1 566.322 191C571.722 192.1 576.622 190 581.422 187.6C582.822 186.9 583.322 184.7 582.522 183.4C581.622 182.3 579.922 181.9 578.422 182.7ZM574.822 169.7C574.822 169.7 574.722 169.7 574.822 169.7C574.722 169.6 574.722 169.6 574.622 169.5C574.722 169.6 574.722 169.7 574.822 169.7ZM564.622 183.5C564.422 183.3 564.522 183.4 564.622 183.5V183.5ZM565.422 184.3C565.522 184.4 565.722 184.6 565.422 184.3V184.3Z" fill="black"/>
<path d="M566.722 185C566.722 185 566.622 185 566.522 184.9C566.622 185 566.622 185 566.722 185Z" fill="black"/>
<path d="M619.622 188C619.222 187.7 618.822 187.4 618.422 187.1C618.222 187 618.122 186.9 617.922 186.7C618.022 186.8 617.522 186.4 617.522 186.4C616.622 185.7 615.722 185 614.922 184.3C613.122 182.8 611.322 181.4 609.522 179.9C607.222 178 604.822 176.2 602.322 174.6C603.922 173.6 605.522 172.6 607.122 171.6C610.022 169.8 613.022 168 615.822 165.9C617.122 164.9 616.922 162.6 615.822 161.6C614.522 160.4 612.822 160.6 611.522 161.6C612.322 161 611.422 161.7 611.222 161.8C610.922 162 610.622 162.2 610.322 162.4C609.622 162.8 609.022 163.3 608.322 163.7C606.822 164.7 605.222 165.6 603.622 166.6C601.222 168.1 598.722 169.6 596.422 171.3C596.522 168.3 596.522 165.2 596.322 162.2C596.222 160.6 595.022 159.1 593.222 159.1C591.722 159.2 590.022 160.4 590.122 162.2C590.522 167 590.322 171.8 589.922 176.6C589.722 179.1 589.422 181.6 589.122 184.1C589.122 184.2 589.122 184.3 589.122 184.4C589.122 184.4 589.122 184.4 589.122 184.5C589.122 184.8 589.022 185 589.022 185.3C588.922 185.9 588.822 186.5 588.722 187.1C588.522 188.2 588.322 189.3 588.122 190.4C587.822 192 588.522 193.8 590.222 194.2C591.722 194.5 593.722 193.7 594.022 192.1C594.822 187.5 595.422 182.8 595.922 178.1C597.522 178.9 599.122 179.8 600.522 180.9C601.422 181.5 602.322 182.2 603.222 182.8C603.822 183.3 604.622 183.9 605.622 184.7C609.222 187.6 612.722 190.7 616.522 193.4C617.822 194.3 620.022 193.7 620.722 192.3C621.522 190.6 621.022 189 619.622 188Z" fill="black"/>
</svg>
